<?xml version="1.0" encoding="UTF-8" standalone="no"?>
<!-- Created with Inkscape (http://www.inkscape.org/) -->

<svg
   xmlns:dc="http://purl.org/dc/elements/1.1/"
   xmlns:cc="http://creativecommons.org/ns#"
   xmlns:rdf="http://www.w3.org/1999/02/22-rdf-syntax-ns#"
   xmlns:svg="http://www.w3.org/2000/svg"
   xmlns="http://www.w3.org/2000/svg"
   xmlns:sodipodi="http://sodipodi.sourceforge.net/DTD/sodipodi-0.dtd"
   xmlns:inkscape="http://www.inkscape.org/namespaces/inkscape"
   width="300mm"
   height="300mm"
   viewBox="0 0 1062.9921 1062.9921"
   id="svg2"
   version="1.1"
   inkscape:version="0.91 r13725"
   sodipodi:docname="bb8.svg">
  <defs
     id="defs4" />
  <sodipodi:namedview
     id="base"
     pagecolor="#ffffff"
     bordercolor="#666666"
     borderopacity="1.0"
     inkscape:pageopacity="0.0"
     inkscape:pageshadow="2"
     inkscape:zoom="0.25"
     inkscape:cx="452.73558"
     inkscape:cy="353.83583"
     inkscape:document-units="px"
     inkscape:current-layer="layer1"
     showgrid="false"
     inkscape:window-width="682"
     inkscape:window-height="716"
     inkscape:window-x="0"
     inkscape:window-y="23"
     inkscape:window-maximized="0"
     showguides="false" />
  <metadata
     id="metadata7">
    <rdf:RDF>
      <cc:Work
         rdf:about="">
        <dc:format>image/svg+xml</dc:format>
        <dc:type
           rdf:resource="http://purl.org/dc/dcmitype/StillImage" />
        <dc:title></dc:title>
      </cc:Work>
    </rdf:RDF>
  </metadata>
  <g
     inkscape:label="Layer 1"
     inkscape:groupmode="layer"
     id="layer1"
     transform="translate(0,10.629921)">
    <path
       style="opacity:1;fill:#d36f26;fill-opacity:1;stroke:#000000;stroke-width:1.20000005;stroke-linecap:round;stroke-linejoin:round;stroke-miterlimit:4;stroke-dasharray:none;stroke-opacity:0.77647059"
       d="m -1691.4883,209.39844 c -0.7149,1.27461 -1.3305,2.62623 -1.8418,4.04687 l 0,0 a 75.929879,43.198919 41.211575 0 1 1.8398,-4.04687 z"
       id="path5144"
       inkscape:connector-curvature="0" />
    <path
       style="opacity:1;fill:#d36f26;fill-opacity:1;stroke:#000000;stroke-width:1.20000005;stroke-linecap:round;stroke-linejoin:round;stroke-miterlimit:4;stroke-dasharray:none;stroke-opacity:0.77647059"
       d="m -1684.3281,201.37695 c -0.5887,0.42524 -1.1545,0.87108 -1.6992,1.33985 -4e-4,3e-4 3e-4,0.002 0,0.002 a 75.929879,43.198919 41.211575 0 1 1.6992,-1.3418 z"
       id="path5142"
       inkscape:connector-curvature="0" />
    <g
       id="g5264"
       transform="translate(2416,128)">
      <g
         id="g5229">
        <g
           id="g5217">
          <g
             id="g5038">
            <path
               style="opacity:1;fill:#ffffff;fill-opacity:1;stroke:#000000;stroke-width:1.20000005;stroke-linecap:round;stroke-linejoin:round;stroke-miterlimit:4;stroke-dasharray:none;stroke-opacity:1"
               d="m -2139.9258,281.84961 a 334,334 0 0 0 -27.3301,45.39844 l 51.3379,53.66406 -7.0293,13.13477 -50.9082,-53.21485 a 334,334 0 0 0 -6.5918,17.00195 l 49.6407,51.89258 -7.0293,13.13477 -48.2227,-50.41016 a 334,334 0 0 0 -5.4707,19.88281 l 45.2637,47.31641 -7.0293,13.13281 -42.291,-44.20703 a 334,334 0 0 0 -5.7168,40.15039 l 1.4765,-0.9414 4.67,-13.39063 22.8847,31.32617 -6.0234,13.1875 -2.9824,38.5625 a 123.85943,67.267691 88.151968 0 1 -3.1973,-1.97265 123.85943,67.267691 88.151968 0 1 -6.2988,-4.84571 123.85943,67.267691 88.151968 0 1 -6.0313,-5.95898 123.85943,67.267691 88.151968 0 1 -4.6894,-5.76758 334,334 0 0 0 1.3398,16.34766 c 0.1287,0.14338 0.2479,0.31882 0.377,0.46094 2.3763,2.6167 4.8157,5.01344 7.3105,7.18359 2.4948,2.17015 5.0445,4.11344 7.6387,5.82031 2.5941,1.70687 5.232,3.17743 7.9062,4.4043 l 5.0059,-49.23633 28.2539,-10.66992 14.9101,50.68359 c 1.8192,-1.18615 3.6076,-2.49118 5.3614,-3.91406 1.7537,-1.42288 3.4738,-2.96381 5.1562,-4.61524 1.6824,-1.65138 3.3266,-3.41342 4.9317,-5.28515 1.605,-1.87174 3.1697,-3.85169 4.6914,-5.93555 1.5217,-2.08386 3.0012,-4.27279 4.4336,-6.56054 1.4323,-2.28779 2.8172,-4.6747 4.1543,-7.15821 1.337,-2.4835 2.6255,-5.06335 3.8613,-7.73437 1.2357,-2.67103 2.4184,-5.43286 3.5469,-8.28321 1.2597,-3.20281 2.4419,-6.49551 3.5449,-9.86718 1.103,-3.37168 2.127,-6.82376 3.0703,-10.34571 0.9433,-3.52195 1.8073,-7.11387 2.5879,-10.76758 0.7806,-3.65365 1.4789,-7.36799 2.0937,-11.13476 0.6149,-3.76677 1.1458,-7.58595 1.5918,-11.44727 0.4461,-3.86131 0.8059,-7.76584 1.0801,-11.70312 0.2742,-3.93728 0.4632,-7.90768 0.5625,-11.90235 0.099,-3.99466 0.1099,-8.0134 0.031,-12.04687 l -26.1563,-6.99805 -8.2344,-48.77148 24.4473,-22.27539 c -1.4159,-4.21967 -3.0014,-8.45403 -4.7207,-12.61914 -1.7193,-4.16511 -3.5723,-8.26084 -5.5176,-12.19922 -1.9453,-3.93839 -3.9843,-7.72028 -6.0781,-11.25977 -2.0938,-3.53948 -4.2414,-6.83626 -6.4063,-9.80468 -2.125,-2.89692 -4.3468,-5.50716 -6.5957,-8.01563 a 334,334 0 0 0 -6.1933,7.69336 131.05614,71.176207 88.151967 0 1 3.6191,3.58203 131.05614,71.176207 88.151967 0 1 6.0293,7.42578 l 0,0.002 a 131.05614,71.176207 88.151967 0 1 2.8301,4.0996 131.05614,71.176207 88.151967 0 1 5.3731,9.00391 131.05614,71.176207 88.151967 0 1 4.8808,9.90625 131.05614,71.176207 88.151967 0 1 4.3359,10.71289 l -19.9667,17.79883 -5.2461,15.49414 -24.2168,-33.14648 5.7851,-13.01563 0.1582,-10.98242 z"
               id="path4462"
               inkscape:connector-curvature="0" />
            <g
               id="g5030">
              <g
                 style="fill:#d7d7d7;fill-opacity:1;stroke:#000000;stroke-opacity:0.77647059"
                 id="g4467">
                <path
                   style="opacity:1;fill:#d7d7d7;fill-opacity:1;stroke:#000000;stroke-width:1.20000005;stroke-linecap:round;stroke-linejoin:round;stroke-miterlimit:4;stroke-dasharray:none;stroke-opacity:0.77647059"
                   d="m -2173.8555,340.83203 50.9082,53.21485 7.0293,-13.13477 -51.3379,-53.66406 a 334,334 0 0 0 -6.5996,13.58398 z"
                   id="path4450"
                   inkscape:connector-curvature="0" />
                <path
                   style="opacity:1;fill:#d7d7d7;fill-opacity:1;stroke:#000000;stroke-width:1.20000005;stroke-linecap:round;stroke-linejoin:round;stroke-miterlimit:4;stroke-dasharray:none;stroke-opacity:0.77647059"
                   d="m -2186.0586,372.45117 48.2227,50.41016 7.0293,-13.13477 -49.6407,-51.89258 a 334,334 0 0 0 -5.6113,14.61719 z"
                   id="path4453"
                   inkscape:connector-curvature="0" />
                <path
                   style="opacity:1;fill:#d7d7d7;fill-opacity:1;stroke:#000000;stroke-width:1.20000005;stroke-linecap:round;stroke-linejoin:round;stroke-miterlimit:4;stroke-dasharray:none;stroke-opacity:0.77647059"
                   d="m -2201.4941,498.92578 a 123.85943,67.267691 88.151968 0 0 4.6894,5.76758 123.85943,67.267691 88.151968 0 0 6.0313,5.95898 123.85943,67.267691 88.151968 0 0 6.2988,4.84571 123.85943,67.267691 88.151968 0 0 3.1973,1.97265 l 2.9824,-38.5625 6.0234,-13.1875 -22.8847,-31.32617 -4.67,13.39063 -1.4765,0.9414 a 334,334 0 0 0 -1.5547,26.7793 334,334 0 0 0 1.3633,23.41992 z"
                   id="path4459"
                   inkscape:connector-curvature="0" />
                <path
                   style="opacity:1;fill:#d7d7d7;fill-opacity:1;stroke:#000000;stroke-width:1.20000005;stroke-linecap:round;stroke-linejoin:round;stroke-miterlimit:4;stroke-dasharray:none;stroke-opacity:0.77647059"
                   d="m -2139.9258,281.84961 -4.5776,6.38623 -6.8458,9.83365 29.6969,40.92465 5.2461,-15.49414 19.9667,-17.79883 c -1.3502,-3.69424 -2.7973,-7.26967 -4.3359,-10.71289 -1.5394,-3.44282 -3.1684,-6.74903 -4.8808,-9.90625 -1.7119,-3.15796 -3.5052,-6.16301 -5.3731,-9.00391 -0.9258,-1.40793 -1.8694,-2.77488 -2.8301,-4.0996 l 0,-0.002 c -1.9453,-2.65342 -3.9576,-5.13178 -6.0293,-7.42578 -1.1891,-1.2553 -2.396,-2.44979 -3.6191,-3.58203 -5.7474,6.73983 -11.2244,13.70563 -16.418,20.88086 z"
                   id="path4447"
                   inkscape:connector-curvature="0"
                   sodipodi:nodetypes="cccccccccccccc" />
              </g>
              <path
                 inkscape:connector-curvature="0"
                 id="path4456"
                 d="m -2195.5859,408.57617 42.291,44.20703 7.0293,-13.13281 -45.2637,-47.31641 a 334,334 0 0 0 -4.0566,16.24219 z"
                 style="opacity:1;fill:#c8c8c8;fill-opacity:1;stroke:#000000;stroke-width:1.20000005;stroke-linecap:round;stroke-linejoin:round;stroke-miterlimit:4;stroke-dasharray:none;stroke-opacity:0.77647059" />
            </g>
          </g>
          <path
             id="path4444"
             d="m -2055.8164,199.09961 a 334,334 0 0 0 -61.4981,54.17578 c 2.2489,2.50847 4.4706,5.11871 6.5957,8.01563 2.1649,2.96842 4.3125,6.2652 6.4063,9.80468 2.0938,3.53949 4.1328,7.32138 6.0781,11.25977 1.9453,3.93838 3.7983,8.03411 5.5176,12.19922 1.7193,4.16511 3.3048,8.39947 4.7207,12.61914 l -24.4473,22.27539 8.2344,48.77148 26.1563,6.99805 c 0.079,4.03347 0.068,8.05221 -0.031,12.04687 -0.099,3.99467 -0.2883,7.96507 -0.5625,11.90235 -0.2742,3.93728 -0.634,7.84181 -1.0801,11.70312 -0.446,3.86132 -0.9769,7.6805 -1.5918,11.44727 -0.6148,3.76677 -1.3131,7.48111 -2.0937,11.13476 -0.7806,3.65366 -1.6446,7.24563 -2.5879,10.76758 -0.9433,3.52195 -1.9673,6.97403 -3.0703,10.34571 -1.103,3.37167 -2.2852,6.66437 -3.5449,9.86718 -1.1285,2.85035 -2.3112,5.61218 -3.5469,8.28321 -1.2358,2.67102 -2.5243,5.25087 -3.8613,7.73437 -1.3371,2.48351 -2.722,4.87042 -4.1543,7.15821 -1.4324,2.28778 -2.9119,4.47668 -4.4336,6.56054 -1.5217,2.08386 -3.0864,4.06381 -4.6914,5.93555 -1.6051,1.87173 -3.2493,3.63375 -4.9317,5.28515 -1.6824,1.65141 -3.4025,3.19236 -5.1562,4.61524 -1.7538,1.42288 -3.5422,2.72791 -5.3614,3.91406 l -14.9101,-50.68359 -28.2539,10.66992 -5.0059,49.23633 c -2.6742,-1.22687 -5.3121,-2.69743 -7.9062,-4.4043 -2.5942,-1.70687 -5.1439,-3.65016 -7.6387,-5.82031 -2.4948,-2.17015 -4.9342,-4.56689 -7.3105,-7.18359 -0.1291,-0.1421 -0.2483,-0.31756 -0.377,-0.46094 a 334,334 0 0 0 64.6758,160.87109 85.714287,270 11.413899 0 0 1.6269,-1.91406 85.714287,270 11.413899 0 0 9.9395,-14.00781 85.714287,270 11.413899 0 0 9.834,-16.1875 85.714287,270 11.413899 0 0 9.6328,-18.20118 85.714287,270 11.413899 0 0 9.334,-20.0332 85.714287,270 11.413899 0 0 8.9433,-21.66797 85.714287,270 11.413899 0 0 8.461,-23.08398 85.714287,270 11.413899 0 0 7.8984,-24.26953 85.714287,270 11.413899 0 0 7.252,-25.21289 85.714287,270 11.413899 0 0 6.5351,-25.9043 85.714287,270 11.413899 0 0 5.7559,-26.33789 85.714287,270 11.413899 0 0 3.5683,-18.76367 85.714287,270 11.413899 0 0 4.2891,-26.4668 85.714287,270 11.413899 0 0 3.373,-26.18359 85.714287,270 11.413899 0 0 2.42,-25.64063 85.714287,270 11.413899 0 0 1.4453,-24.83984 85.714287,270 11.413899 0 0 0.4531,-23.79102 85.714287,270 11.413899 0 0 -0.541,-22.5039 85.714287,270 11.413899 0 0 -1.5293,-20.99415 85.714287,270 11.413899 0 0 -2.5059,-19.27343 85.714287,270 11.413899 0 0 -3.4531,-17.36133 85.714287,270 11.413899 0 0 -4.3672,-15.27344 85.714287,270 11.413899 0 0 -5.2402,-13.0332 85.714287,270 11.413899 0 0 -3.4629,-6.09961 z"
             style="opacity:1;fill:#d36f26;fill-opacity:1;stroke:#000000;stroke-width:1.20000005;stroke-linecap:round;stroke-linejoin:round;stroke-miterlimit:4;stroke-dasharray:none;stroke-opacity:0.77647059"
             inkscape:connector-curvature="0" />
        </g>
        <path
           style="opacity:1;fill:#e2e2e2;fill-opacity:1;stroke:#000000;stroke-width:1.20000005;stroke-linecap:round;stroke-linejoin:round;stroke-miterlimit:4;stroke-dasharray:none;stroke-opacity:1"
           d="m -1806.916,147.52539 a 334,334 0 0 0 -61.9414,-6.01953 334,334 0 0 0 -186.959,57.59375 85.714287,270 11.413899 0 1 3.4629,6.09961 85.714287,270 11.413899 0 1 5.2402,13.0332 85.714287,270 11.413899 0 1 4.3672,15.27344 85.714287,270 11.413899 0 1 3.4531,17.36133 85.714287,270 11.413899 0 1 2.5059,19.27343 85.714287,270 11.413899 0 1 1.5293,20.99415 85.714287,270 11.413899 0 1 0.541,22.5039 85.714287,270 11.413899 0 1 -0.4531,23.79102 85.714287,270 11.413899 0 1 -1.4453,24.83984 85.714287,270 11.413899 0 1 -2.42,25.64063 85.714287,270 11.413899 0 1 -3.373,26.18359 85.714287,270 11.413899 0 1 -4.2891,26.4668 85.714287,270 11.413899 0 1 -3.5683,18.76367 85.714287,270 11.413899 0 1 -5.7559,26.33789 85.714287,270 11.413899 0 1 -6.5351,25.9043 85.714287,270 11.413899 0 1 -7.252,25.21289 85.714287,270 11.413899 0 1 -7.8984,24.26953 85.714287,270 11.413899 0 1 -8.461,23.08398 85.714287,270 11.413899 0 1 -8.9433,21.66797 85.714287,270 11.413899 0 1 -9.334,20.0332 85.714287,270 11.413899 0 1 -9.6328,18.20118 85.714287,270 11.413899 0 1 -9.834,16.1875 85.714287,270 11.413899 0 1 -9.9395,14.00781 85.714287,270 11.413899 0 1 -1.6269,1.91406 334,334 0 0 0 266.6211,133.36133 334,334 0 0 0 334,-334 334,334 0 0 0 -5.416,-58.13477 212.85715,75.714287 40.105309 0 1 -5.1993,-1.39648 212.85715,75.714287 40.105309 0 1 -14.6601,-5.10742 212.85715,75.714287 40.105309 0 1 -15.4434,-6.47657 212.85715,75.714287 40.105309 0 1 -16.0722,-7.7832 212.85715,75.714287 40.105309 0 1 -16.543,-9.00781 212.85715,75.714287 40.105309 0 1 -16.8457,-10.14649 212.85715,75.714287 40.105309 0 1 -16.9805,-11.18164 212.85715,75.714287 40.105309 0 1 -16.9472,-12.10546 212.85715,75.714287 40.105309 0 1 -16.7422,-12.91016 212.85715,75.714287 40.105309 0 1 -11.6387,-9.55469 212.85715,75.714287 40.105309 0 1 -16.0098,-13.97851 212.85715,75.714287 40.105309 0 1 -15.3633,-14.41797 212.85715,75.714287 40.105309 0 1 -14.5605,-14.71094 212.85715,75.714287 40.105309 0 1 -13.6172,-14.86133 212.85715,75.714287 40.105309 0 1 -12.5332,-14.85937 212.85715,75.714287 40.105309 0 1 -11.3242,-14.71094 212.85715,75.714287 40.105309 0 1 -10.0059,-14.41406 212.85715,75.714287 40.105309 0 1 -8.584,-13.97461 212.85715,75.714287 40.105309 0 1 -7.0761,-13.39453 212.85715,75.714287 40.105309 0 1 -5.502,-12.68164 212.85715,75.714287 40.105309 0 1 -3.8672,-11.8418 212.85715,75.714287 40.105309 0 1 -2.1972,-10.88281 212.85715,75.714287 40.105309 0 1 -0.5059,-9.81446 212.85715,75.714287 40.105309 0 1 1.1934,-8.65039 212.85715,75.714287 40.105309 0 1 0.3828,-0.98242 z"
           id="path4465"
           inkscape:connector-curvature="0" />
        <g
           id="g5205">
          <g
             style="fill:#d7d7d7;fill-opacity:1"
             id="g5159">
            <g
               style="fill:#d7d7d7;fill-opacity:1"
               id="g5154">
              <path
                 inkscape:connector-curvature="0"
                 id="path5137"
                 d="m -1604.5762,272.25391 -23.2461,10.15429 8.2481,7.14063 20.8965,-9.12695 a 334,334 0 0 0 -5.8985,-8.16797 z"
                 style="opacity:1;fill:#d7d7d7;fill-opacity:1;stroke:#000000;stroke-width:1.20000005;stroke-linecap:round;stroke-linejoin:round;stroke-miterlimit:4;stroke-dasharray:none;stroke-opacity:0.77647059" />
              <path
                 inkscape:connector-curvature="0"
                 id="path5135"
                 d="m -1619.3828,254.55078 -26.7559,11.6875 8.2481,7.14063 25.375,-11.08399 a 334,334 0 0 0 -6.8672,-7.74414 z"
                 style="opacity:1;fill:#d7d7d7;fill-opacity:1;stroke:#000000;stroke-width:1.20000005;stroke-linecap:round;stroke-linejoin:round;stroke-miterlimit:4;stroke-dasharray:none;stroke-opacity:0.77647059" />
              <path
                 inkscape:connector-curvature="0"
                 id="path5133"
                 d="m -1634.8066,238.01172 -28.9707,12.6543 8.2461,7.14062 28.1386,-12.28906 a 334,334 0 0 0 -7.414,-7.50586 z"
                 style="opacity:1;fill:#d7d7d7;fill-opacity:1;stroke:#000000;stroke-width:1.20000005;stroke-linecap:round;stroke-linejoin:round;stroke-miterlimit:4;stroke-dasharray:none;stroke-opacity:0.77647059" />
            </g>
            <g
               style="fill:#d7d7d7;fill-opacity:1"
               id="g5150">
              <path
                 inkscape:connector-curvature="0"
                 id="path5139"
                 d="m -1590.8125,291.31055 -10.3848,7.40234 7.4004,6.98633 9.1934,17.8457 a 71.760326,40.826727 41.211577 0 0 2.3789,-0.32031 71.760326,40.826727 41.211577 0 0 4.5234,-1.06445 71.760326,40.826727 41.211577 0 0 4.1035,-1.60938 71.760326,40.826727 41.211577 0 0 0.08,-0.0469 334,334 0 0 0 -17.2949,-29.19336 z"
                 style="opacity:1;fill:#d7d7d7;fill-opacity:1;stroke:#000000;stroke-width:1.20000005;stroke-linecap:round;stroke-linejoin:round;stroke-miterlimit:4;stroke-dasharray:none;stroke-opacity:0.77647059" />
              <path
                 inkscape:connector-curvature="0"
                 id="path5131"
                 d="m -1681.2676,199.57031 a 75.929879,43.198919 41.211575 0 0 -3.0605,1.80469 l 0,0.002 a 75.929879,43.198919 41.211575 0 0 -1.6992,1.3418 75.929879,43.198919 41.211575 0 0 -3.0176,3.09375 75.929879,43.198919 41.211575 0 0 -2.4434,3.58594 75.929879,43.198919 41.211575 0 0 -1.8398,4.04687 l 20.0586,11.52149 7.1367,7.88476 14.5215,-10.34961 a 334,334 0 0 0 -29.6563,-22.93164 z"
                 style="opacity:1;fill:#d7d7d7;fill-opacity:1;stroke:#000000;stroke-width:1.20000005;stroke-linecap:round;stroke-linejoin:round;stroke-miterlimit:4;stroke-dasharray:none;stroke-opacity:0.77647059" />
            </g>
          </g>
          <path
             inkscape:connector-curvature="0"
             id="path5129"
             d="m -1687.8867,195.4707 c -0.3085,0.19563 -0.6611,0.34133 -0.9571,0.55078 -1.3291,0.95071 -2.5871,2.05173 -3.7578,3.27149 -1.1706,1.21976 -2.253,2.55921 -3.2285,3.98437 -0.9754,1.42514 -1.8457,2.937 -2.5898,4.50391 -0.744,1.56691 -1.3614,3.18897 -1.8379,4.83398 l 24.6426,14.32227 1.4101,20.45117 -21.0449,-1.47851 c 0.6289,1.79761 1.33,3.6044 2.1035,5.41601 0.7739,1.81167 1.6205,3.62851 2.5332,5.44531 0.9128,1.81679 1.8937,3.63423 2.9395,5.44727 1.0458,1.81303 2.1549,3.62149 3.3281,5.42187 1.173,1.80039 2.4084,3.59222 3.7031,5.3711 1.2946,1.7789 2.6502,3.5445 4.0606,5.29297 1.4103,1.74847 2.8762,3.48025 4.3965,5.18945 1.5203,1.70919 3.0962,3.39561 4.7207,5.05664 1.452,1.47956 2.933,2.9297 4.4453,4.34766 1.5124,1.41797 3.055,2.80462 4.6211,4.15625 1.5662,1.35165 3.1561,2.66865 4.7695,3.94922 1.6135,1.28057 3.25,2.52374 4.9043,3.72851 1.6543,1.20478 3.3271,2.37188 5.0156,3.4961 1.6887,1.12424 3.391,2.20522 5.1074,3.24414 1.7164,1.03895 3.446,2.03548 5.1836,2.98437 1.7377,0.94892 3.4858,1.85093 5.2383,2.70508 l 3.9395,-20.12891 25.8789,9.78321 12.7558,22.99804 c 2.0635,-0.0786 4.0542,-0.27179 5.9668,-0.58007 1.9126,-0.30826 3.7461,-0.73173 5.4942,-1.26563 1.2833,-0.39196 2.468,-0.90835 3.6562,-1.41992 a 334,334 0 0 0 -3.0293,-6.04492 71.760326,40.826727 41.211577 0 1 -0.08,0.0469 71.760326,40.826727 41.211577 0 1 -4.1035,1.60938 71.760326,40.826727 41.211577 0 1 -4.5234,1.06445 71.760326,40.826727 41.211577 0 1 -2.3789,0.32031 l -9.1934,-17.8457 -7.4004,-6.98633 10.3848,-7.40234 a 334,334 0 0 0 0,-0.002 334,334 0 0 0 -7.8652,-10.88671 l -20.8965,9.12695 -8.2481,-7.14063 23.2461,-10.15429 a 334,334 0 0 0 -7.9394,-9.95899 l -25.375,11.08399 -8.2481,-7.14063 26.7559,-11.6875 a 334,334 0 0 0 -8.0098,-9.0332 l -28.1386,12.28906 -8.2461,-7.14062 28.9707,-12.6543 a 334,334 0 0 0 -16.8047,-15.50977 l -14.5215,10.34961 -7.1367,-7.88476 -20.0586,-11.52149 0,0 c 0.5113,-1.42064 1.1269,-2.77226 1.8418,-4.04687 a 75.929879,43.198919 41.211575 0 1 2.4434,-3.58594 75.929879,43.198919 41.211575 0 1 3.0176,-3.09375 l 0,-0.002 c 0.5447,-0.46877 1.1105,-0.91461 1.6992,-1.33985 l 0,-0.002 a 75.929879,43.198919 41.211575 0 1 3.0605,-1.80469 334,334 0 0 0 -6.6191,-4.09961 z"
             style="opacity:1;fill:#ffffff;fill-opacity:1;stroke:#000000;stroke-width:1.20000005;stroke-linecap:round;stroke-linejoin:round;stroke-miterlimit:4;stroke-dasharray:none;stroke-opacity:0.77647059" />
          <path
             inkscape:connector-curvature="0"
             id="path4136"
             d="m -1806.916,147.52539 a 212.85715,75.714287 40.105309 0 0 -0.3828,0.98242 212.85715,75.714287 40.105309 0 0 -1.1934,8.65039 212.85715,75.714287 40.105309 0 0 0.5059,9.81446 212.85715,75.714287 40.105309 0 0 2.1972,10.88281 212.85715,75.714287 40.105309 0 0 3.8672,11.8418 212.85715,75.714287 40.105309 0 0 5.502,12.68164 212.85715,75.714287 40.105309 0 0 7.0761,13.39453 212.85715,75.714287 40.105309 0 0 8.584,13.97461 212.85715,75.714287 40.105309 0 0 10.0059,14.41406 212.85715,75.714287 40.105309 0 0 11.3242,14.71094 212.85715,75.714287 40.105309 0 0 12.5332,14.85937 212.85715,75.714287 40.105309 0 0 13.6172,14.86133 212.85715,75.714287 40.105309 0 0 14.5605,14.71094 212.85715,75.714287 40.105309 0 0 15.3633,14.41797 212.85715,75.714287 40.105309 0 0 16.0098,13.97851 212.85715,75.714287 40.105309 0 0 11.6387,9.55469 212.85715,75.714287 40.105309 0 0 16.7422,12.91016 212.85715,75.714287 40.105309 0 0 16.9472,12.10546 212.85715,75.714287 40.105309 0 0 16.9805,11.18164 212.85715,75.714287 40.105309 0 0 16.8457,10.14649 212.85715,75.714287 40.105309 0 0 16.543,9.00781 212.85715,75.714287 40.105309 0 0 16.0722,7.7832 212.85715,75.714287 40.105309 0 0 15.4434,6.47657 212.85715,75.714287 40.105309 0 0 14.6601,5.10742 212.85715,75.714287 40.105309 0 0 5.1993,1.39648 334,334 0 0 0 -30.2149,-90.82226 c -1.1882,0.51157 -2.3729,1.02796 -3.6562,1.41992 -1.7481,0.5339 -3.5816,0.95737 -5.4942,1.26563 -1.9126,0.30828 -3.9033,0.50152 -5.9668,0.58007 l -12.7558,-22.99804 -25.8789,-9.78321 -3.9395,20.12891 c -1.7525,-0.85415 -3.5006,-1.75616 -5.2383,-2.70508 -1.7376,-0.94889 -3.4672,-1.94542 -5.1836,-2.98437 -1.7164,-1.03892 -3.4187,-2.1199 -5.1074,-3.24414 -1.6885,-1.12422 -3.3613,-2.29132 -5.0156,-3.4961 -1.6543,-1.20477 -3.2908,-2.44794 -4.9043,-3.72851 -1.6134,-1.28057 -3.2033,-2.59757 -4.7695,-3.94922 -1.5661,-1.35163 -3.1087,-2.73828 -4.6211,-4.15625 -1.5123,-1.41796 -2.9933,-2.8681 -4.4453,-4.34766 -1.6245,-1.66103 -3.2004,-3.34745 -4.7207,-5.05664 -1.5203,-1.7092 -2.9862,-3.44098 -4.3965,-5.18945 -1.4104,-1.74847 -2.766,-3.51407 -4.0606,-5.29297 -1.2947,-1.77888 -2.5301,-3.57071 -3.7031,-5.3711 -1.1732,-1.8004 -2.2823,-3.60884 -3.3281,-5.42187 -1.0458,-1.81304 -2.0267,-3.63048 -2.9395,-5.44727 -0.9127,-1.8168 -1.7593,-3.63364 -2.5332,-5.44531 -0.7735,-1.81161 -1.4746,-3.6184 -2.1035,-5.41601 l 21.0449,1.47851 -1.4101,-20.45117 -24.6426,-14.32227 c 0.4765,-1.64501 1.0939,-3.26707 1.8379,-4.83398 0.7441,-1.56691 1.6144,-3.07877 2.5898,-4.50391 0.9755,-1.42516 2.0579,-2.76461 3.2285,-3.98437 1.1707,-1.21976 2.4282,-2.32078 3.7578,-3.27149 0.296,-0.20945 0.6486,-0.35515 0.9571,-0.55078 a 334,334 0 0 0 -119.0293,-47.94531 z"
             style="opacity:1;fill:#d36f26;fill-opacity:1;stroke:#000000;stroke-width:1.20000005;stroke-linecap:round;stroke-linejoin:round;stroke-miterlimit:4;stroke-dasharray:none;stroke-opacity:0.77647059" />
        </g>
        <g
           id="g5194">
          <ellipse
             ry="204.28572"
             rx="201.42857"
             cy="568.07648"
             cx="-1778.5714"
             id="path4156"
             style="opacity:1;fill:#d36f26;fill-opacity:1;stroke:#000000;stroke-width:2;stroke-linecap:round;stroke-linejoin:round;stroke-miterlimit:4;stroke-dasharray:none;stroke-opacity:0.77647059" />
          <path
             sodipodi:nodetypes="ccccccccccccccccccccc"
             id="path4217"
             d="m -1863.1195,448.43497 c -19.3588,13.63572 -35.7533,30.95033 -47.9728,50.66512 l 49.8106,19.37408 -12.7156,44.37383 -56.3373,9.34074 c -2.6187,31.21278 5.2081,61.28012 22.3353,85.80326 15.0732,21.42632 36.6225,37.65798 62.2021,46.85259 l 29.592,-46.33357 54.7493,3.56828 1.0181,52.77577 c 23.5467,-4.59063 46.2736,-14.28999 66.3832,-28.33091 17.5039,-12.34814 32.5986,-27.71889 44.3679,-45.17907 l -43.3064,-22.6376 8.7013,-52.75266 57.9355,-12.02966 c 0.6997,-28.29358 -7.2293,-55.23504 -22.8188,-77.53535 -17.5614,-24.94119 -43.8278,-42.73895 -74.811,-50.69074 l -24.0423,44.09912 -51.6787,0.80798 -4.8237,-49.3083 c -19.7579,5.23511 -41.5772,15.22068 -58.5887,27.13709 z"
             style="opacity:1;fill:#ffffff;fill-opacity:1;stroke:#000000;stroke-width:1.63702703;stroke-linecap:round;stroke-linejoin:round;stroke-miterlimit:4;stroke-dasharray:none;stroke-opacity:1"
             inkscape:connector-curvature="0" />
          <g
             id="g4367"
             style="fill:#d7d7d7;fill-opacity:1;stroke:#000000;stroke-width:2;stroke-miterlimit:4;stroke-dasharray:none;stroke-opacity:1">
            <path
               inkscape:connector-curvature="0"
               style="fill:#d7d7d7;fill-opacity:1;fill-rule:evenodd;stroke:#000000;stroke-width:2;stroke-linecap:butt;stroke-linejoin:miter;stroke-miterlimit:4;stroke-dasharray:none;stroke-opacity:1"
               d="m -1855.0868,456.96432 a 123.84341,139.72402 54.944852 0 0 -37.7667,37.72822 l -0.043,1.2233 40.1054,13.08851 8.4763,13.84323 47.5195,-33.34173 -11.1852,-13.59073 -3.5658,-40.16022 a 123.84341,139.72402 54.944852 0 0 -43.54,21.20942 z"
               id="path4164" />
            <g
               id="g4362"
               style="fill:#d7d7d7;fill-opacity:1;stroke:#000000;stroke-width:2;stroke-miterlimit:4;stroke-dasharray:none;stroke-opacity:1">
              <path
                 sodipodi:nodetypes="ccccc"
                 inkscape:connector-curvature="0"
                 id="path4166"
                 d="m -1867.0336,567.64423 114.5143,-80.34823 10.2575,15.20177 -114.7884,80.54044 z"
                 style="fill:#d7d7d7;fill-opacity:1;fill-rule:evenodd;stroke:#000000;stroke-width:2;stroke-linecap:butt;stroke-linejoin:miter;stroke-miterlimit:4;stroke-dasharray:none;stroke-opacity:1" />
              <path
                 sodipodi:nodetypes="ccccc"
                 inkscape:connector-curvature="0"
                 id="path4166-3"
                 d="m -1844.2158,600.16492 114.5145,-80.34823 10.2573,15.20177 -114.7883,80.54045 z"
                 style="fill:#d7d7d7;fill-opacity:1;fill-rule:evenodd;stroke:#000000;stroke-width:2;stroke-linecap:butt;stroke-linejoin:miter;stroke-miterlimit:4;stroke-dasharray:none;stroke-opacity:1" />
              <path
                 sodipodi:nodetypes="ccccc"
                 inkscape:connector-curvature="0"
                 id="path4166-36"
                 d="m -1820.5202,633.93641 114.5143,-80.34823 10.2575,15.20176 -114.7884,80.54045 z"
                 style="fill:#d7d7d7;fill-opacity:1;fill-rule:evenodd;stroke:#000000;stroke-width:2;stroke-linecap:butt;stroke-linejoin:miter;stroke-miterlimit:4;stroke-dasharray:none;stroke-opacity:1" />
            </g>
            <path
               inkscape:connector-curvature="0"
               style="fill:#d7d7d7;fill-opacity:1;fill-rule:evenodd;stroke:#000000;stroke-width:2;stroke-linecap:butt;stroke-linejoin:miter;stroke-miterlimit:4;stroke-dasharray:none;stroke-opacity:1"
               d="m -1755.3647,645.73498 9.5771,11.98398 -1.2631,39.85046 1.0204,0.32922 a 117.04277,132.05132 54.944852 0 0 45.7207,-21.45399 117.04277,132.05132 54.944852 0 0 32.8777,-31.83047 l -34.5405,-16.07909 -8.4824,-14.31094 -44.9099,31.51083 z"
               id="path4164-5" />
          </g>
        </g>
      </g>
      <g
         id="g5180">
        <path
           style="opacity:1;fill:#e1e1e1;fill-opacity:1;stroke:#282828;stroke-width:1.20000005;stroke-linecap:round;stroke-linejoin:round;stroke-miterlimit:4;stroke-dasharray:none;stroke-opacity:1"
           d="m -1914.6211,-37.447266 a 239.8232,236.01648 80.634376 0 0 -38.8613,3.087891 239.8232,236.01648 80.634376 0 0 -195.1836,264.332035 44.411703,236.01648 80.634376 0 0 -0.4434,4.5664 44.411703,236.01648 80.634376 0 0 1.4532,3.39649 239.8232,236.01648 80.634376 0 0 0.1874,1.47851 l 1.002,-0.16601 a 44.411703,236.01648 80.634376 0 0 237.457,0.70312 44.411703,236.01648 80.634376 0 0 224.7969,-76.94336 l 2.3809,-0.39258 a 239.8232,236.01648 80.634376 0 0 -3.7266,-16.83203 c -0.4383,0.31525 -0.8094,0.67456 -1.2539,0.98438 -3.0937,2.15625 -6.3281,4.17969 -9.5703,6.05469 -3.2422,1.875 -6.4922,3.60156 -9.6172,5.16406 -6.25,3.125 -12,5.59375 -16.1875,7.28125 -4.1875,1.6875 -6.8125,2.59375 -6.8125,2.59375 l -10.5,-28.5 c 9.375,-3.875 17.2188,-7.38281 23.7676,-10.55469 6.5488,-3.17187 11.8027,-6.00781 15.998,-8.53906 2.3098,-1.3936 3.6031,-2.48121 5.3106,-3.69531 a 239.8232,236.01648 80.634376 0 0 -220.1973,-154.019536 z"
           id="path4138"
           inkscape:connector-curvature="0" />
        <g
           id="g5168">
          <path
             inkscape:connector-curvature="0"
             id="path4954"
             d="m -1694.4238,116.57227 c -1.7075,1.2141 -3.0008,2.30171 -5.3106,3.69531 -4.1953,2.53125 -9.4492,5.36719 -15.998,8.53906 -6.5488,3.17188 -14.3926,6.67969 -23.7676,10.55469 l 10.5,28.5 c 0,0 2.625,-0.90625 6.8125,-2.59375 4.1875,-1.6875 9.9375,-4.15625 16.1875,-7.28125 3.125,-1.5625 6.375,-3.28906 9.6172,-5.16406 3.2422,-1.875 6.4766,-3.89844 9.5703,-6.05469 0.4445,-0.30982 0.8156,-0.66913 1.2539,-0.98438 a 239.8232,236.01648 80.634376 0 0 -8.8652,-29.21093 z"
             style="opacity:1;fill:#d36f26;fill-opacity:1;stroke:#282828;stroke-width:1.20000005;stroke-linecap:round;stroke-linejoin:round;stroke-miterlimit:4;stroke-dasharray:none;stroke-opacity:1" />
          <circle
             r="38.183765"
             cy="176.964"
             cx="-1854.0339"
             id="path4768"
             style="opacity:1;fill:#434343;fill-opacity:1;stroke:#282828;stroke-width:4;stroke-linecap:round;stroke-linejoin:round;stroke-miterlimit:4;stroke-dasharray:none;stroke-opacity:1" />
          <ellipse
             ry="16.2635"
             rx="16.624912"
             cy="176.964"
             cx="-1854.0339"
             id="path4770"
             style="opacity:1;fill:#1e1e1e;fill-opacity:1;stroke:none;stroke-width:4;stroke-linecap:round;stroke-linejoin:round;stroke-miterlimit:4;stroke-dasharray:none;stroke-opacity:1" />
          <path
             sodipodi:nodetypes="ccccc"
             inkscape:connector-curvature="0"
             id="path4905"
             d="m -1814.3042,-14.815465 c -124.9051,91.879644 -275.961,57.853431 -275.961,57.853431 0,0 6.4128,-10.840329 23.6545,-23.699989 0,0 120.485,21.885147 219.7728,-46.156176 0,0 18.3589,4.177882 32.5337,12.002734 z"
             style="fill:#7f7f7f;fill-opacity:1;fill-rule:evenodd;stroke:#282828;stroke-width:1px;stroke-linecap:butt;stroke-linejoin:miter;stroke-opacity:1" />
          <path
             inkscape:connector-curvature="0"
             id="path4937"
             d="m -2015.2562,123.11353 a 74.093269,70.293617 3.6633651 0 1 -1.0575,-6.22678 74.093269,70.293617 3.6633651 0 1 -0.4449,-7.01933 74.093269,70.293617 3.6633651 0 1 0.1325,-4.97436 74.093269,70.293617 3.6633651 0 1 0.8187,-6.979523 74.093269,70.293617 3.6633651 0 1 1.5471,-6.862438 74.093269,70.293617 3.6633651 0 1 1.3558,-3.997713 c -58.8199,0.61996 -102.2759,-10.597514 -102.2759,-10.597514 -14.3399,22.314388 -17.2439,33.129978 -17.2439,33.129978 0,0 49.4261,14.18129 117.1681,13.52768 z"
             style="fill:#d36f26;fill-opacity:1;fill-rule:evenodd;stroke:#282828;stroke-width:1px;stroke-linecap:butt;stroke-linejoin:miter;stroke-opacity:1" />
          <path
             inkscape:connector-curvature="0"
             id="path4905-9"
             d="m -1788.4933,-0.180812 c -29.5074,30.755833 -63.3807,51.148071 -97.8817,64.500765 a 74.093269,70.293617 3.6633651 0 1 4.4036,5.409603 74.093269,70.293617 3.6633651 0 1 3.9345,5.98041 74.093269,70.293617 3.6633651 0 1 3.2867,6.31666 74.093269,70.293617 3.6633651 0 1 2.6094,6.594261 74.093269,70.293617 3.6633651 0 1 1.9051,6.803595 74.093269,70.293617 3.6633651 0 1 0.03,0.172201 c 38.2858,-15.552966 76.3162,-38.988469 110.5966,-73.844175 -14.3991,-12.621953 -28.8843,-21.93332 -28.8843,-21.93332 z"
             style="fill:#d36f26;fill-opacity:1;fill-rule:evenodd;stroke:#282828;stroke-width:1px;stroke-linecap:butt;stroke-linejoin:miter;stroke-opacity:1" />
          <ellipse
             ry="52.325901"
             rx="55.154327"
             cy="109.36603"
             cx="-1940.7446"
             id="path4530"
             style="opacity:1;fill:#252525;fill-opacity:1;stroke:#282828;stroke-width:4;stroke-linecap:round;stroke-linejoin:round;stroke-miterlimit:4;stroke-dasharray:none;stroke-opacity:1" />
          <path
             sodipodi:nodetypes="ccccc"
             inkscape:connector-curvature="0"
             id="path4945"
             d="m -1796.9289,160.44278 1.4592,31.68198 27.2929,-8.67677 -10.2071,-29.20711 z"
             style="fill:#d36f26;fill-opacity:1;fill-rule:evenodd;stroke:#000000;stroke-width:1px;stroke-linecap:butt;stroke-linejoin:miter;stroke-opacity:1" />
          <path
             sodipodi:nodetypes="ccccc"
             inkscape:connector-curvature="0"
             id="path4947"
             d="m -1772.3839,151.91766 11.091,28.73743 10.9393,-4.17677 -11.5,-28.76777 z"
             style="fill:#d36f26;fill-opacity:1;fill-rule:evenodd;stroke:#000000;stroke-width:1px;stroke-linecap:butt;stroke-linejoin:miter;stroke-opacity:1" />
          <path
             sodipodi:nodetypes="ccccc"
             inkscape:connector-curvature="0"
             id="path4949"
             d="m -1754.7071,144.88733 11.4142,29.26776 6.6465,-2.85355 -11.6465,-28.85355 z"
             style="fill:#d36f26;fill-opacity:1;fill-rule:evenodd;stroke:#000000;stroke-width:1px;stroke-linecap:butt;stroke-linejoin:miter;stroke-opacity:1" />
        </g>
      </g>
    </g>
  </g>
</svg>
