<?xml version="1.0" encoding="UTF-8" standalone="no"?>
<!-- Created with Inkscape (http://www.inkscape.org/) -->

<svg
   xmlns:dc="http://purl.org/dc/elements/1.1/"
   xmlns:cc="http://creativecommons.org/ns#"
   xmlns:rdf="http://www.w3.org/1999/02/22-rdf-syntax-ns#"
   xmlns:svg="http://www.w3.org/2000/svg"
   xmlns="http://www.w3.org/2000/svg"
   xmlns:sodipodi="http://sodipodi.sourceforge.net/DTD/sodipodi-0.dtd"
   xmlns:inkscape="http://www.inkscape.org/namespaces/inkscape"
   width="210mm"
   height="250mm"
   viewBox="0 0 744.09449 885.82677"
   id="svg2"
   version="1.1"
   inkscape:version="0.91 r13725"
   sodipodi:docname="clonetrooper.svg">
  <defs
     id="defs4">
    <filter
       inkscape:collect="always"
       style="color-interpolation-filters:sRGB"
       id="filter4503"
       x="-0.1077395"
       width="1.215479"
       y="-0.086567447"
       height="1.1731349">
      <feGaussianBlur
         inkscape:collect="always"
         stdDeviation="24.396956"
         id="feGaussianBlur4505" />
    </filter>
  </defs>
  <sodipodi:namedview
     id="base"
     pagecolor="#ffffff"
     bordercolor="#666666"
     borderopacity="1.0"
     inkscape:pageopacity="0"
     inkscape:pageshadow="2"
     inkscape:zoom="0.175"
     inkscape:cx="-548.48697"
     inkscape:cy="579.92322"
     inkscape:document-units="px"
     inkscape:current-layer="layer1"
     showgrid="false"
     showguides="true"
     inkscape:guide-bbox="true"
     inkscape:window-width="1365"
     inkscape:window-height="717"
     inkscape:window-x="0"
     inkscape:window-y="23"
     inkscape:window-maximized="1" />
  <metadata
     id="metadata7">
    <rdf:RDF>
      <cc:Work
         rdf:about="">
        <dc:format>image/svg+xml</dc:format>
        <dc:type
           rdf:resource="http://purl.org/dc/dcmitype/StillImage" />
        <dc:title></dc:title>
      </cc:Work>
    </rdf:RDF>
  </metadata>
  <g
     inkscape:label="Layer 1"
     inkscape:groupmode="layer"
     id="layer1"
     transform="translate(0,-166.53543)">
    <g
       id="g4167"
       transform="translate(1011.4285,91.428572)">
      <path
         id="path4224-9"
         d="m -666.66663,153.31389 -0.094,31.28711 c 0,0 -34.6307,-4.58133 -86.1484,25.47071 -51.5178,30.05204 -87.5311,75.85452 -94.2227,130.13281 0,0 10.3265,10.28934 10.6836,28.14648 0.3571,17.85715 9.4648,32.5 9.4648,32.5 l -47.9023,13.52539 0.252,10.85743 -12.5,10.35547 -1.8946,65.9121 14.6485,13.88868 -2.0215,89.39843 c 0,0 1.7675,3.03191 -13.3848,22.98243 -15.1523,19.95051 -20.7062,44.9516 -20.2012,56.56836 0.5051,11.61675 3.5339,34.85003 26.0098,46.46679 0,0 4.7985,11.11176 28.5371,22.72852 0,0 36.8712,80.05428 127.0274,76.01367 0,0 54.0434,-2.77774 65.6601,-59.09375 l 24.4375,0.0391 0.059,0 24.4375,-0.0391 c 11.6168,56.31601 65.6602,59.09375 65.6602,59.09375 90.1561,4.04061 127.0254,-76.01367 127.0254,-76.01367 23.7385,-11.61676 28.5371,-22.72852 28.5371,-22.72852 22.4759,-11.61676 25.5066,-34.85004 26.0117,-46.46679 0.5051,-11.61676 -5.0508,-36.61785 -20.2031,-56.56836 -15.1523,-19.95052 -13.3848,-22.98243 -13.3848,-22.98243 l -2.0195,-89.39843 14.6465,-13.88868 -1.8946,-65.9121 -12.5,-10.35547 0.252,-10.85743 -47.9004,-13.52539 c 0,0 9.1057,-14.64285 9.4629,-32.5 0.3571,-17.85714 10.6836,-28.14648 10.6836,-28.14648 -6.6917,-54.27829 -42.703,-100.08077 -94.2207,-130.13281 -51.5178,-30.05204 -86.1504,-25.47071 -86.1504,-25.47071 l -0.092,-31.28711 -12.0586,0 -0.062,3.85157 -16.2598,5.99414 -16.2598,-5.99414 -0.062,-3.85157 -12.0585,0 z"
         style="fill:#000000;fill-opacity:1;fill-rule:evenodd;stroke:none;stroke-width:1px;stroke-linecap:butt;stroke-linejoin:miter;stroke-opacity:1;filter:url(#filter4503)"
         inkscape:connector-curvature="0" />
      <path
         id="path4224"
         d="m -666.82617,153.08398 -0.0937,31.28711 c 0,0 -34.63066,-4.58133 -86.14844,25.47071 -51.51778,30.05204 -87.53103,75.85452 -94.22266,130.13281 0,0 10.32645,10.28934 10.6836,28.14648 0.35714,17.85715 9.46484,32.5 9.46484,32.5 l -47.90234,13.52539 0.25195,10.85743 -12.5,10.35547 -1.89453,65.9121 14.64844,13.88868 -2.02149,89.39843 c 0,0 1.76752,3.03191 -13.38476,22.98243 -15.15229,19.95051 -20.70625,44.9516 -20.20117,56.56836 0.50507,11.61675 3.53387,34.85003 26.00976,46.46679 0,0 4.79853,11.11176 28.53711,22.72852 0,0 36.87122,80.05428 127.02734,76.01367 0,0 54.04341,-2.77774 65.66016,-59.09375 l 24.4375,0.0391 0.0586,0 24.4375,-0.0391 c 11.61675,56.31601 65.66016,59.09375 65.66016,59.09375 90.15612,4.04061 127.02539,-76.01367 127.02539,-76.01367 23.73858,-11.61676 28.53711,-22.72852 28.53711,-22.72852 22.47589,-11.61676 25.50665,-34.85004 26.01172,-46.46679 0.50508,-11.61676 -5.05084,-36.61785 -20.20313,-56.56836 -15.15228,-19.95052 -13.38476,-22.98243 -13.38476,-22.98243 l -2.01953,-89.39843 14.64648,-13.88868 -1.89453,-65.9121 -12.5,-10.35547 0.25195,-10.85743 -47.90039,-13.52539 c 0,0 9.10575,-14.64285 9.46289,-32.5 0.35715,-17.85714 10.6836,-28.14648 10.6836,-28.14648 -6.69163,-54.27829 -42.70293,-100.08077 -94.22071,-130.13281 -51.51778,-30.05204 -86.15039,-25.47071 -86.15039,-25.47071 l -0.0918,-31.28711 -12.0586,0 -0.0625,3.85157 -16.25976,5.99414 -16.25977,-5.99414 -0.0625,-3.85157 -12.05859,0 z"
         style="fill:#ffffff;fill-opacity:1;fill-rule:evenodd;stroke:none;stroke-width:1px;stroke-linecap:butt;stroke-linejoin:miter;stroke-opacity:1"
         inkscape:connector-curvature="0" />
      <g
         id="g4403">
        <path
           style="fill:#828282;fill-opacity:1;fill-rule:evenodd;stroke:none;stroke-width:1px;stroke-linecap:butt;stroke-linejoin:miter;stroke-opacity:1"
           d="m -846.42857,340.44231 -2.14286,54.82143 10.89286,6.25 10,-5.17857 -1.07143,-38.03571 c 0,0 2.5,-13.03572 -17.67857,-17.85715 z"
           id="path4226"
           inkscape:connector-curvature="0" />
        <path
           style="fill:#828282;fill-opacity:1;fill-rule:evenodd;stroke:none;stroke-width:1px;stroke-linecap:butt;stroke-linejoin:miter;stroke-opacity:1"
           d="m -430.46293,340.44231 2.14286,54.82143 -10.89286,6.25 -10,-5.17857 1.07143,-38.03571 c 0,0 -2.5,-13.03572 17.67857,-17.85715 z"
           id="path4226-1"
           inkscape:connector-curvature="0" />
      </g>
      <path
         id="path4228"
         d="m -860.89258,394.28125 -0.01,15.38086 c 0,0 94.04184,7.74174 222.42773,7.74414 0.0199,0 0.0387,0 0.0586,0 128.3859,-0.002 222.42774,-7.74414 222.42774,-7.74414 l -0.01,-15.38086 c -15.35025,4.64077 -222.23202,5.98122 -222.41797,5.98242 0,0 -0.0585,0 -0.0586,0 -0.18593,-10e-4 -207.06772,-1.34165 -222.41797,-5.98242 z"
         style="fill:#000000;fill-opacity:1;fill-rule:evenodd;stroke:none;stroke-width:1px;stroke-linecap:butt;stroke-linejoin:miter;stroke-opacity:1"
         inkscape:connector-curvature="0" />
      <path
         id="path4249"
         d="m -810.40234,424.8457 c -1.80665,-0.0781 -9.1504,1.75782 -11.02539,36.13282 0,0 -5.7e-4,35.714 9.28515,44.64257 0,0 68.92829,-39.99971 107.14258,-47.14257 38.21428,-7.14286 42.85742,8.57003 45.35742,25.71289 l 15.92383,92.33593 c 0,0 -15.30732,-1.51406 -75.76172,43.1836 -47.47717,35.1028 -58.58984,34.59765 -58.58984,34.59765 0,0 23.48586,7.3e-4 54.04297,-17.17187 30.54664,-17.16671 57.05639,-31.30444 85.58203,-31.56641 28.52563,0.26197 55.03343,14.3997 85.58008,31.56641 30.55711,17.1726 54.04296,17.17187 54.04296,17.17187 0,0 -11.11072,0.50515 -58.58789,-34.59765 -60.4544,-44.69766 -75.76172,-43.1836 -75.76172,-43.1836 l 15.92383,-92.33593 c 2.5,-17.14286 7.14314,-32.85575 45.35743,-25.71289 38.21428,7.14286 107.14257,47.14257 107.14257,47.14257 9.28572,-8.92857 9.28516,-44.64257 9.28516,-44.64257 -2.14285,-39.28571 -11.42773,-36.07227 -11.42773,-36.07227 -101.19718,8.55188 -171.20623,4.30848 -171.5254,4.28906 l 0,-0.004 c 0,0 -0.0291,0.002 -0.0293,0.002 -1.9e-4,-10e-6 -0.0293,-0.002 -0.0293,-0.002 l 0,0.004 c -0.31916,0.0194 -70.32821,4.26282 -171.52539,-4.28906 0,0 -0.14425,-0.0494 -0.40234,-0.0605 z"
         style="fill:#000000;fill-opacity:1;fill-rule:evenodd;stroke:none;stroke-width:1px;stroke-linecap:butt;stroke-linejoin:miter;stroke-opacity:1"
         inkscape:connector-curvature="0" />
      <path
         id="path4253"
         d="m -638.47461,717.94922 0,0.002 -15.85156,0.75586 c 0,0 -0.88352,7.32267 -6.06055,11.36328 -2.47586,1.93238 -2.53807,5.39674 -2.1875,8.67774 0.38247,3.57958 1.4236,6.94093 4.58594,7.86328 l 0,5.05078 11.99609,-0.63086 0.25196,4.92383 3.41015,0 0.25196,-1.13477 3.63281,-0.125 3.63281,0.125 0.25195,1.13477 3.40821,0 0.2539,-4.92383 11.99414,0.63086 0,-5.05078 c 3.16234,-0.92235 4.20347,-4.2837 4.58594,-7.86328 0.35057,-3.281 0.29031,-6.74536 -2.18555,-8.67774 -5.17703,-4.04061 -6.06054,-11.36328 -6.06054,-11.36328 l -15.85157,-0.75586 0,-0.002 -0.0293,0.002 -0.0293,-0.002 z"
         style="fill:#000000;fill-opacity:1;fill-rule:evenodd;stroke:none;stroke-width:1px;stroke-linecap:butt;stroke-linejoin:miter;stroke-opacity:1"
         inkscape:connector-curvature="0" />
      <path
         id="rect4222"
         d="m -654.84375,156.33594 0,144.28515 16.09375,0 0.60742,0 16.0957,0 0,-144.28515 -16.0957,0 -0.60742,0 -16.09375,0 z"
         style="opacity:1;fill:#bababa;fill-opacity:1;stroke:none;stroke-width:0.30000001;stroke-linecap:round;stroke-linejoin:round;stroke-miterlimit:4;stroke-dasharray:none;stroke-opacity:1"
         inkscape:connector-curvature="0" />
      <g
         id="g4411">
        <path
           style="fill:#000000;fill-opacity:1;fill-rule:evenodd;stroke:none;stroke-width:1px;stroke-linecap:butt;stroke-linejoin:miter;stroke-opacity:1"
           d="m -779.08015,772.24464 c 0,0 4.04061,-27.52666 43.43656,-26.01143 0,0 23.48604,4.41941 26.01142,1.13642 0,0 23.73859,15.15229 -0.50507,43.43656 -24.24366,28.28427 -43.31029,12.2481 -50.76016,6.9448 0,0 -15.65737,-7.57614 -18.18275,-25.50635 z"
           id="path4251"
           inkscape:connector-curvature="0"
           sodipodi:nodetypes="cccscc" />
        <path
           style="fill:#000000;fill-opacity:1;fill-rule:evenodd;stroke:none;stroke-width:1px;stroke-linecap:butt;stroke-linejoin:miter;stroke-opacity:1"
           d="m -497.81135,772.24464 c 0,0 -4.04061,-27.52666 -43.43656,-26.01143 0,0 -23.48604,4.41941 -26.01142,1.13642 0,0 -23.73859,15.15229 0.50507,43.43656 24.24366,28.28427 43.31029,12.2481 50.76016,6.9448 0,0 15.65737,-7.57614 18.18275,-25.50635 z"
           id="path4251-2"
           inkscape:connector-curvature="0"
           sodipodi:nodetypes="cccscc" />
      </g>
      <g
         id="g4407">
        <path
           style="fill:#bababa;fill-opacity:1;fill-rule:evenodd;stroke:none;stroke-width:1px;stroke-linecap:butt;stroke-linejoin:miter;stroke-opacity:1"
           d="m -777.81746,655.31948 c 0,0 52.02286,-37.37564 -8.08122,-99.50003 -60.10408,-62.12438 -76.77159,-79.80205 -76.77159,-79.80205 l -4.04061,135.36044 c 0,0 83.33758,36.3655 88.89342,43.94164 z"
           id="path4255"
           inkscape:connector-curvature="0" />
        <path
           style="fill:#bababa;fill-opacity:1;fill-rule:evenodd;stroke:none;stroke-width:1px;stroke-linecap:butt;stroke-linejoin:miter;stroke-opacity:1"
           d="m -499.07404,655.31948 c 0,0 -52.02286,-37.37564 8.08122,-99.50003 60.10408,-62.12438 76.77159,-79.80205 76.77159,-79.80205 l 4.04061,135.36044 c 0,0 -83.33758,36.3655 -88.89342,43.94164 z"
           id="path4255-0"
           inkscape:connector-curvature="0" />
      </g>
      <g
         id="g4434">
        <g
           id="g4425">
          <path
             inkscape:connector-curvature="0"
             id="path4257"
             d="m -852.14285,663.65661 c 0,0 21.78571,-20.71429 31.96428,-23.03572 L -825,637.94232 c 0,0 -22.32143,12.14286 -30.53571,22.67857 z"
             style="fill:#282828;fill-opacity:1;fill-rule:evenodd;stroke:none;stroke-width:1px;stroke-linecap:butt;stroke-linejoin:miter;stroke-opacity:1" />
          <path
             inkscape:connector-curvature="0"
             id="path4257-2"
             d="m -859.63708,658.42325 c 0,0 21.78571,-20.71429 31.96428,-23.03572 l -4.82143,-2.67857 c 0,0 -22.32143,12.14286 -30.53571,22.67857 z"
             style="fill:#282828;fill-opacity:1;fill-rule:evenodd;stroke:none;stroke-width:1px;stroke-linecap:butt;stroke-linejoin:miter;stroke-opacity:1" />
          <path
             inkscape:connector-curvature="0"
             id="path4257-8"
             d="m -866.60137,654.49468 c 0,0 21.78571,-20.71429 31.96428,-23.03572 l -4.82143,-2.67857 c 0,0 -22.32143,12.14286 -30.53571,22.67857 z"
             style="fill:#282828;fill-opacity:1;fill-rule:evenodd;stroke:none;stroke-width:1px;stroke-linecap:butt;stroke-linejoin:miter;stroke-opacity:1" />
          <path
             inkscape:connector-curvature="0"
             id="path4257-1"
             d="m -874.10136,650.74468 c 0,0 21.78571,-20.71429 31.96428,-23.03572 l -4.82143,-2.67857 c 0,0 -22.32143,12.14286 -30.53571,22.67857 z"
             style="fill:#282828;fill-opacity:1;fill-rule:evenodd;stroke:none;stroke-width:1px;stroke-linecap:butt;stroke-linejoin:miter;stroke-opacity:1" />
          <path
             inkscape:connector-curvature="0"
             id="path4286"
             d="m -880.17857,647.04946 c 0,0 8.39285,-10.17857 16.25,-15.17857 7.85714,-5 13.57143,-8.21429 13.57143,-8.21429 l -3.39286,-1.25 c 0,0 -14.64286,7.5 -21.78572,16.60714 -7.14285,9.10715 -7.14285,7.5 -7.14285,7.5 z"
             style="fill:#282828;fill-opacity:1;fill-rule:evenodd;stroke:none;stroke-width:1px;stroke-linecap:butt;stroke-linejoin:miter;stroke-opacity:1" />
          <path
             sodipodi:nodetypes="ccccc"
             inkscape:connector-curvature="0"
             id="path4288"
             d="m -855.35715,620.79946 c 0,0 -23.79464,16.29464 -28.34821,25.17857 l -1.47321,-0.53572 c 0,0 7.14285,-11.07142 26.42857,-26.96428 z"
             style="fill:#282828;fill-opacity:1;fill-rule:evenodd;stroke:none;stroke-width:1px;stroke-linecap:butt;stroke-linejoin:miter;stroke-opacity:1" />
          <path
             sodipodi:nodetypes="ccccc"
             inkscape:connector-curvature="0"
             id="path4290"
             d="m -888.6817,643.95526 c 0,0 24.11739,-22.72843 26.1377,-26.13769 l -3.03046,-1.6415 c 0,0 -12.37437,16.54125 -23.99113,27.52666 0,0 0.37881,0.50507 0.88389,0.25253 z"
             style="fill:#282828;fill-opacity:1;fill-rule:evenodd;stroke:none;stroke-width:1px;stroke-linecap:butt;stroke-linejoin:miter;stroke-opacity:1" />
        </g>
        <g
           id="g4416">
          <path
             inkscape:connector-curvature="0"
             id="path4257-4"
             d="m -424.74865,663.65661 c 0,0 -21.78571,-20.71429 -31.96428,-23.03572 l 4.82143,-2.67857 c 0,0 22.32143,12.14286 30.53571,22.67857 z"
             style="fill:#282828;fill-opacity:1;fill-rule:evenodd;stroke:none;stroke-width:1px;stroke-linecap:butt;stroke-linejoin:miter;stroke-opacity:1" />
          <path
             inkscape:connector-curvature="0"
             id="path4257-2-2"
             d="m -417.25442,658.42325 c 0,0 -21.78571,-20.71429 -31.96428,-23.03572 l 4.82143,-2.67857 c 0,0 22.32143,12.14286 30.53571,22.67857 z"
             style="fill:#282828;fill-opacity:1;fill-rule:evenodd;stroke:none;stroke-width:1px;stroke-linecap:butt;stroke-linejoin:miter;stroke-opacity:1" />
          <path
             inkscape:connector-curvature="0"
             id="path4257-8-9"
             d="m -410.29013,654.49468 c 0,0 -21.78571,-20.71429 -31.96428,-23.03572 l 4.82143,-2.67857 c 0,0 22.32143,12.14286 30.53571,22.67857 z"
             style="fill:#282828;fill-opacity:1;fill-rule:evenodd;stroke:none;stroke-width:1px;stroke-linecap:butt;stroke-linejoin:miter;stroke-opacity:1" />
          <path
             inkscape:connector-curvature="0"
             id="path4257-1-9"
             d="m -402.79014,650.74468 c 0,0 -21.78571,-20.71429 -31.96428,-23.03572 l 4.82143,-2.67857 c 0,0 22.32143,12.14286 30.53571,22.67857 z"
             style="fill:#282828;fill-opacity:1;fill-rule:evenodd;stroke:none;stroke-width:1px;stroke-linecap:butt;stroke-linejoin:miter;stroke-opacity:1" />
          <path
             inkscape:connector-curvature="0"
             id="path4286-6"
             d="m -396.71293,647.04946 c 0,0 -8.39285,-10.17857 -16.25,-15.17857 -7.85714,-5 -13.57143,-8.21429 -13.57143,-8.21429 l 3.39286,-1.25 c 0,0 14.64286,7.5 21.78572,16.60714 7.14285,9.10715 7.14285,7.5 7.14285,7.5 z"
             style="fill:#282828;fill-opacity:1;fill-rule:evenodd;stroke:none;stroke-width:1px;stroke-linecap:butt;stroke-linejoin:miter;stroke-opacity:1" />
          <path
             sodipodi:nodetypes="ccccc"
             inkscape:connector-curvature="0"
             id="path4288-4"
             d="m -421.53435,620.79946 c 0,0 23.79464,16.29464 28.34821,25.17857 l 1.47321,-0.53572 c 0,0 -7.14285,-11.07142 -26.42857,-26.96428 z"
             style="fill:#282828;fill-opacity:1;fill-rule:evenodd;stroke:none;stroke-width:1px;stroke-linecap:butt;stroke-linejoin:miter;stroke-opacity:1" />
          <path
             sodipodi:nodetypes="ccccc"
             inkscape:connector-curvature="0"
             id="path4290-3"
             d="m -388.2098,643.95526 c 0,0 -24.11739,-22.72843 -26.1377,-26.13769 l 3.03046,-1.6415 c 0,0 12.37437,16.54125 23.99113,27.52666 0,0 -0.37881,0.50507 -0.88389,0.25253 z"
             style="fill:#282828;fill-opacity:1;fill-rule:evenodd;stroke:none;stroke-width:1px;stroke-linecap:butt;stroke-linejoin:miter;stroke-opacity:1" />
        </g>
      </g>
    </g>
  </g>
</svg>
