<?xml version="1.0" encoding="UTF-8" standalone="no"?>
<!-- Created with Inkscape (http://www.inkscape.org/) -->

<svg
   xmlns:dc="http://purl.org/dc/elements/1.1/"
   xmlns:cc="http://creativecommons.org/ns#"
   xmlns:rdf="http://www.w3.org/1999/02/22-rdf-syntax-ns#"
   xmlns:svg="http://www.w3.org/2000/svg"
   xmlns="http://www.w3.org/2000/svg"
   xmlns:sodipodi="http://sodipodi.sourceforge.net/DTD/sodipodi-0.dtd"
   xmlns:inkscape="http://www.inkscape.org/namespaces/inkscape"
   width="200mm"
   height="250mm"
   viewBox="0 0 708.66142 885.82677"
   id="svg2"
   version="1.1"
   inkscape:version="0.91 r13725"
   sodipodi:docname="joker.svg">
  <defs
     id="defs4" />
  <sodipodi:namedview
     id="base"
     pagecolor="#ffffff"
     bordercolor="#666666"
     borderopacity="1.0"
     inkscape:pageopacity="0.0"
     inkscape:pageshadow="2"
     inkscape:zoom="0.35"
     inkscape:cx="171.96978"
     inkscape:cy="468.65536"
     inkscape:document-units="px"
     inkscape:current-layer="layer1"
     showgrid="false"
     inkscape:window-width="1365"
     inkscape:window-height="717"
     inkscape:window-x="0"
     inkscape:window-y="23"
     inkscape:window-maximized="1" />
  <metadata
     id="metadata7">
    <rdf:RDF>
      <cc:Work
         rdf:about="">
        <dc:format>image/svg+xml</dc:format>
        <dc:type
           rdf:resource="http://purl.org/dc/dcmitype/StillImage" />
        <dc:title></dc:title>
      </cc:Work>
    </rdf:RDF>
  </metadata>
  <g
     inkscape:label="Layer 1"
     inkscape:groupmode="layer"
     id="layer1"
     transform="translate(0,-166.53543)">
    <g
       id="g4265"
       transform="translate(-14.285714,68.571429)">
      <path
         inkscape:connector-curvature="0"
         id="path4201"
         d="m 385.23716,416.39167 -7.64171,0 -0.89902,-2.47233 -6.51794,0.44952 -2.0228,-1.79805 -3.82086,-0.89903 -0.44951,-1.57329 -1.79805,-0.44951 -2.47232,-4.27037 -2.47232,-1.34854 3.14659,-0.22475 0.67427,-1.12379 -2.47233,-1.79805 -2.0228,-1.34854 -1.34854,-0.4495 -1.12378,-2.24757 2.02281,-3.37135 -1.79805,-1.34853 1.79805,-1.79805 -2.47232,-5.16939 0.67427,-5.84367 -7.1922,1.12379 -0.89902,-0.22476 -7.1922,0.22476 -3.5961,7.86646 -2.69708,1.34854 -4.27037,2.47232 -3.82086,1.57329 -6.06841,-2.0228 0.22476,-3.14659 -3.59611,0.22475 -0.67427,-1.34853 c 0,0 1.34854,0.89902 -1.34853,-0.67427 -2.69708,-1.57329 -2.69708,-1.57329 -2.69708,-1.57329 l 0,0 c 0.44952,-1.79805 0.44952,-1.79805 0.44952,-1.79805 l 0,-6.06842 -2.24757,-0.44952 -1.57329,-1.34853 -2.47232,-0.67427 -0.44951,-1.79805 -4.49513,0.67427 -5.16939,-0.67427 -3.14659,-1.34854 -0.22475,-2.0228 -5.84367,0.67426 -0.22475,3.14659 -4.94464,0.22476 -2.0228,-2.24757 -5.61891,-2.0228 -0.67427,-3.37135 -2.92183,-2.0228 -1.5733,-3.37134 -5.16938,-1.34854 -5.1694,-1.79805 -4.94464,-0.22476 -3.37134,-4.94463 -2.47232,0 -2.24756,-3.82086 -8.99025,-6.29318 0.44951,-4.27036 -6.06842,-0.89903 -3.37134,-2.24756 -5.84366,-2.92183 -3.82086,2.02281 -0.22476,-4.27037 -13.71012,0.22475 -2.47232,-2.0228 -3.82086,-4.04561 -4.49512,-3.82086 -2.92184,-2.02281 -5.6189,-1.57329 -3.37134,0 -1.12379,-1.34854 -4.04561,1.5733 -2.0228,-1.79806 -2.24756,0.22476 -0.44952,0.44951 -3.5961,-1.57329 -4.94464,-1.79805 -3.37134,-1.34854 -1.57329,-1.34854 -4.49513,-0.44951 -2.47232,1.5733 -3.82085,-0.44952 -0.22476,1.34854 -1.79805,0.67427 -0.44951,1.79805 -4.49512,-1.57329 -2.47233,-3.37135 -2.24755,0.22476 1.34853,-4.27037 -2.69707,-3.5961 -4.04561,-3.82086 -3.59611,1.79806 -2.69707,0.44951 0.89903,1.79804 3.14658,-0.89902 -1.57329,2.47232 -1.12378,1.34854 0.67427,1.79805 -0.22476,0.89903 0.89902,1.57329 -1.12377,0.67426 -0.22476,3.14659 -1.79805,1.12378 0,2.02281 -3.14659,3.5961 -4.71988,0.44951 -3.5961,-3.14658 -0.44951,2.0228 -2.24756,2.92183 -0.89903,1.5733 -1.79805,2.47231 -1.34854,-0.22475 0.67427,4.27037 -1.57329,5.39415 1.34854,3.37134 0.89902,5.84366 -0.44951,4.94464 2.92183,2.02281 -1.57329,8.54073 2.92183,1.57329 1.79805,5.84367 -1.34854,5.16939 -1.12378,0.22476 -4.94464,-0.67427 -2.0228,0.22475 -0.44953,-4.49512 -1.3485,-1.12378 -2.2476,-0.44952 -1.5733,1.5733 2.24761,3.14659 1.57329,2.92183 3.14659,4.71988 1.79802,5.39415 2.24757,1.57329 0.89902,2.69708 4.49513,3.82085 -0.22476,0 4.49512,4.71988 3.37134,4.04562 -0.67427,1.12378 2.24757,2.69707 1.12378,4.49513 4.04561,3.5961 0.89903,2.47232 3.5961,3.59609 -0.22476,3.14659 0.67427,1.34854 -0.67427,2.92183 2.24756,2.24756 1.79805,0.67427 3.37135,0.44951 2.24756,2.02281 5.39415,2.47232 0.44951,2.0228 2.24756,2.92183 1.5733,4.27038 2.0228,4.27036 -0.89902,2.92184 -0.22476,2.24756 -0.67427,2.24756 -5.39415,1.57329 4.27037,0.89903 2.47232,1.12378 2.92183,2.47232 3.5961,4.04561 0.22476,2.24756 c 0,0 -1.5733,1.57329 1.79805,-1.12378 3.37134,-2.69708 3.37134,-2.69708 3.37134,-2.69708 l 1.79805,4.49513 5.6189,2.24756 c 0,0 -5.6189,-0.22475 -1.12377,1.5733 4.49512,1.79804 4.49512,1.79804 4.49512,1.79804 l -0.44951,2.24757 3.37134,-0.89903 1.57329,5.84366 3.82086,0.67427 2.02281,2.69708 2.0228,-0.22476 0.89903,1.79805 2.0228,1.12378 1.12379,0.5619 2.69707,0.56188 -0.22475,1.79806 2.13518,-0.67427 1.57329,0.22475 1.01141,3.48373 -1.01141,2.35994 -3.37134,1.0114 1.68567,1.57329 0.56189,1.68567 0.22476,2.13519 1.12378,1.57329 3.14659,0.78665 3.03421,1.46091 4.04561,-1.57329 3.70847,1.12378 1.12379,1.91042 3.03421,-1.23615 3.59609,1.23615 2.92184,-0.4495 5.50652,1.23615 1.34854,0.78665 2.92183,-1.0114 c 0,0 -0.33713,1.34854 1.57329,1.23616 1.91043,-0.11238 2.35994,-0.78665 2.35994,-0.78665 l 2.35994,0 c 0,0 1.34854,-2.24756 1.34854,-1.57329 0,0.67427 -0.11237,2.47232 -0.11237,2.47232 l 2.69707,-0.5619 c 0,0 -0.44951,-0.4495 1.23616,-2.24756 1.68567,-1.79805 4.71988,-1.79805 4.71988,-1.79805 l 2.02281,0.22476 0,1.46091 1.23615,0.33714 0.33714,0.67426 3.48372,-1.91042 2.13519,-1.46092 c 0,0 -4.27037,-2.0228 -0.67427,-1.91042 3.59609,0.11238 3.48372,0.11238 3.48372,0.11238 l -0.11238,-3.03422 3.25896,-0.56189 -1.12377,-0.89902 3.93323,-1.46092 3.37134,-1.46091 3.14659,-2.02281 2.69708,-0.44951 2.58469,-0.78665 5.39415,-0.89902 -0.33714,-2.02281 2.47232,-0.33713 2.80946,-1.46092 3.93323,0 1.5733,0.56189 2.58469,0.78665 3.25896,1.12378 2.24757,2.24756 1.91043,3.25897 1.0114,2.0228 0.44952,3.25897 2.47231,2.35994 -0.44951,1.34854 1.79805,0.78665 2.0228,-3.14659 -3.37134,-3.25897 2.35994,-3.82085 -1.57329,-1.68567 0.33713,-2.02281 -1.34854,-5.61891 -0.89902,-2.13518 -1.5733,-1.79805 3.37135,-2.5847 2.80945,-1.57329 1.46092,-2.35994 3.25896,2.24756 1.5733,2.02281 1.34854,-1.91043 2.58469,0.11238 c 0,0 -0.44951,-1.68567 0.44952,-2.24757 0.89902,-0.56189 1.0114,-1.46091 1.0114,-1.46091 l 1.12378,-1.79805 c 0,0 3.14658,-1.46092 5.16939,-0.56189 2.02281,0.89902 1.0114,2.69707 1.0114,2.69707 l 1.12379,1.12378 2.80945,-0.78664 0.89902,-1.79805 2.69708,-0.33714 -1.68567,-5.05701 1.57329,-5.05702 c 0,0 -2.5847,1.57329 0.89903,0.78665 3.48372,-0.78665 3.25896,-0.78665 3.25896,-0.78665 l 1.12378,0.67427 -0.22476,1.79805 0.78665,3.14658 c 0,0 0.67427,1.46092 2.02281,2.35995 1.34853,0.89903 1.34853,1.0114 1.34853,1.0114 l 1.79806,-2.24756 -2.13519,-2.47232 0.33713,-2.69708 1.23617,-2.24756 1.79804,-1.0114 1.91043,-2.13519 1.12378,-0.33713 1.5733,-2.02281 0.44951,-2.58469 -0.44951,-4.15799 2.47231,-4.04561 1.5733,-0.22476 -0.56189,-2.69707 5.05701,-1.46092 2.47232,1.0114 0.56189,-2.92183 1.5733,0 1.79805,2.02281 4.04561,-1.68568 2.13518,1.34854 3.93324,-1.79804 4.15799,-0.78665 2.69707,0.33713 2.92184,1.12378 0.44951,1.01141 2.69707,-0.11238 1.46091,1.23616 3.82086,0.22475 2.80946,0.11238 2.24756,-0.78664 -0.22476,3.0342 1.79805,1.12379 -0.33713,2.47231 2.24756,2.35994 4.04561,-2.02281 1.57329,1.12379 2.13519,2.24756 3.82086,4.15799 3.03421,1.12378 0.78664,1.34854 1.0114,4.15799 -0.11237,2.02281 0.89902,1.46091 -0.44951,6.29318 5.95604,-3.59611 0,1.68568 5.39415,-4.27037 7.1922,-1.46092 c 0,0 -0.89903,-1.46091 1.23616,-1.0114 2.13518,0.44951 2.13518,0.44951 2.13518,0.44951 0,0 2.47232,-0.78665 2.80946,1.01141 0.33713,1.79805 0.4495,1.79805 0.4495,1.79805 l 1.23617,1.91042 -0.5619,2.02281 -0.78664,3.93323 -1.23616,2.5847 -1.68567,2.35994 -0.56189,2.13519 -1.46092,0.89902 0,1.68567 0.56189,2.02281 -1.57329,2.13519 0.56189,2.35994 2.69708,0.78664 c 0,0 1.12377,-0.11237 0.56189,1.23616 -0.56189,1.34854 2.0228,-0.44951 2.0228,-0.44951 l 3.70848,-3.37135 2.13519,-3.70847 0.78664,-1.12379 1.46091,-1.0114 0.56189,-1.34854 3.25897,-2.47231 2.69708,1.79804 2.58469,1.68568 0.33713,2.80945 3.37135,-2.47232 4.27037,-0.56189 2.13518,1.46092 c 0,0 1.34854,1.0114 4.94464,0.44951 3.5961,-0.56189 4.04561,1.46092 4.04561,1.46092 l 1.68567,0.44951 4.27037,0.67427 0.67427,-1.46092 1.68567,0.33714 1.5733,1.23615 3.14658,0.33714 1.23616,1.23616 2.47232,0.11237 c 0,0 -0.44951,2.47232 1.68568,2.13519 2.13517,-0.33713 2.13517,-0.33713 2.13517,-0.33713 l 1.68568,1.12378 3.14659,-0.44952 2.69707,0.44952 2.24756,1.57329 4.71989,-0.67427 1.57329,-4.27036 5.6189,-0.67427 4.60751,-0.89903 1.79805,-1.79805 3.5961,0.33714 2.47232,0.11237 4.38274,-0.44951 1.23616,3.48372 3.25897,-0.22475 1.68567,-2.24757 3.14658,0.11238 0.78665,-3.70848 2.92183,0.44952 4.71988,-2.92184 4.49513,2.24757 -0.78665,-4.83226 -5.16939,-0.89903 -1.68567,-3.93323 3.03421,-5.84366 3.37134,-3.37135 3.48372,-3.03421 1.23616,-1.91043 -3.48372,-2.0228 0.78665,-3.70848 4.04561,-3.5961 4.38274,-2.13518 5.28177,-5.39415 3.48373,-0.22476 4.71988,-2.5847 1.46091,1.01141 4.158,-1.57329 3.25896,-0.78665 3.93323,-1.57329 5.28178,1.12377 -4.71988,-2.58469 -0.22476,-2.69708 3.37134,-0.78665 c 0,0 -3.93323,-3.59609 0,-1.68567 3.93324,1.91044 4.71988,0.5619 4.71988,0.5619 l 2.69708,-3.48372 -2.13519,-3.37135 -2.47232,-0.67427 -0.67427,-3.25896 0.11238,-3.82086 -2.58469,-1.12378 -2.13519,-2.92183 -1.0114,-2.35994 5.16939,-3.14659 3.82086,-1.23616 c 0,0 -0.33714,-1.79805 1.23616,-3.70848 1.57329,-1.91042 2.58469,-4.71988 2.58469,-4.71988 l 3.03421,-1.91042 2.69708,-1.46092 -0.89902,-1.79805 1.23615,-0.89903 1.68567,-0.11237 1.5733,-1.91043 1.57329,-0.44951 -0.89902,-2.80945 0.33713,-3.25897 2.35994,-1.23616 1.23616,-1.68567 c 0,0 0.22475,-1.23616 1.68567,-2.5847 1.46092,-1.34854 -3.03421,-0.78665 -3.03421,-0.78665 l -1.91042,-1.46091 1.0114,-5.28177 2.5847,-2.13519 c 0,0 -0.56189,-2.69707 1.57329,-3.82086 2.13518,-1.12377 3.03421,-2.24756 3.03421,-2.24756 l -0.44951,-2.13518 2.35994,-1.57329 2.35994,0.33713 -0.89903,-4.04561 2.80945,-4.83226 -2.35994,0.33713 -2.0228,1.01141 -1.79805,-0.44952 0.33713,-2.0228 -0.44951,-1.12378 2.02281,-2.69707 3.14658,-0.44952 -2.58469,-2.02281 0.33713,-3.14659 c 0,0 -2.35994,4.158 -3.14659,0.5619 -0.78664,-3.5961 -0.89902,-4.94464 -0.89902,-4.94464 l -3.37134,0.44951 c 0,0 1.12378,-2.58469 -0.56189,-1.0114 -1.68568,1.57329 -1.5733,3.82086 -1.5733,3.82086 l -1.0114,1.0114 -0.67427,2.92183 -2.24756,0.56189 -1.0114,1.34853 -2.5847,-1.68567 -0.78665,-1.79804 -2.13518,-0.44952 -1.34854,-2.69707 -1.91043,-0.11238 -1.12378,-3.5961 -1.68567,-1.34853 0,-2.80946 -2.92183,-1.12378 -4.71989,-1.12378 -1.12377,-1.12378 -2.92184,-0.56189 -1.12377,1.91042 -0.33714,1.23616 -2.13519,0.22476 -1.34853,1.79805 -2.47232,-0.33714 -0.44951,-1.91042 -1.68568,1.34853 -0.78664,2.35994 2.35994,0.33714 0,2.13519 -0.11238,2.13518 -2.5847,0.22476 -1.46091,1.79805 -4.15799,1.34853 -1.46092,-2.13518 -2.69707,0.33713 -0.89903,0.89902 -2.35994,0.22476 -0.11238,1.34854 -2.5847,-0.44951 0,-3.93324 -1.0114,0.11238 -0.33713,3.14659 -8.20361,-0.11238 -0.33713,-1.34854 -2.58469,2.24757 -0.22476,1.12377 -2.13518,0.5619 -0.11239,1.34854 -1.34853,0.78664 -0.11238,1.23616 -2.0228,0.78665 -2.5847,-0.22476 -0.22476,2.47232 -2.35994,-0.22476 -0.78665,2.13519 -4.04561,1.12378 -1.68567,0.44951 -2.13519,2.24757 c 0,0 -0.33713,-1.34854 -1.23615,0.89902 -0.89903,2.24756 -0.89903,2.24756 -0.89903,2.24756 l -1.34853,1.12378 -3.03421,0.5619 -2.47232,-0.22477 -3.48372,-0.67426 -1.01141,1.46091 -1.79805,0.11238 -2.24756,2.5847 -1.57329,0.22475 -2.24757,0.78665 -0.89902,-1.12378 0.22475,-2.5847 c 0,0 0.44952,2.13519 -1.91042,3.25897 -2.35994,1.12378 -0.11238,0.89903 -2.35994,1.12378 -2.24757,0.22475 -5.1694,0.89902 -5.1694,0.89902 l -0.78664,2.35994 -2.69708,0.78665 -0.78664,1.46092 -1.0114,0.78664 0.33713,1.23617 -2.5847,0.44951 -0.67427,-2.02281 -1.23616,1.34854 -1.68567,1.23616 -2.13518,0.67427 -2.69708,1.12378 c 0,0 0.33714,-3.14659 -2.13518,-0.89903 -2.47232,2.24757 -3.82086,1.23616 -3.82086,1.23616 l -1.46091,1.79805 -2.47232,-1.68567 -3.25897,1.79805 -2.24756,1.12378 -1.12378,2.24756 -2.5847,-0.22475 -0.44951,-1.23617 -3.70847,1.5733 -4.38275,0.33714 -1.5733,2.47231 -1.68567,1.23617 -2.47232,0.11237 -3.03421,1.46092 -2.35994,0.11238 -1.34854,1.0114 c 0,0 -1.91042,1.91042 -4.27036,0.67427 -2.35994,-1.23616 -2.02281,-3.93324 -2.02281,-3.93324 l -2.0228,-1.68567 -3.14659,0.33713 -1.01141,1.12379 -2.69707,0.78665 -2.92183,1.91042 0,2.80946 -2.69707,0.11237 -2.80946,-2.47231 -1.0114,3.14658 -1.23616,2.69708 -2.24757,1.0114 -0.67426,0.78664 -1.12378,1.34854 -0.33714,1.12378 -0.33713,2.24756 -1.5733,2.35994 c 0,0 0.11238,-1.57329 -2.24756,0.78665 -2.35994,2.35994 -2.24756,2.24756 -2.24756,2.24756 0,0 -1.57329,2.24757 -4.27037,0.22476 -2.69707,-2.0228 -2.69707,-1.79805 -2.69707,-1.79805 l -3.14659,0.33714 -1.34854,1.46091 -2.80945,-0.22476 -0.22476,2.24757 -2.0228,0.44951 -1.01141,1.23616 -1.46092,0 -1.23615,3.93323 -2.02281,2.02281 -0.67427,2.92183 2.02281,1.57329 -2.69707,1.12379 -2.80946,-1.0114 c 0,0 -0.67427,1.91042 -1.68567,1.34853 -1.0114,-0.56189 -1.12378,-0.67426 -1.12378,-0.67426 z"
         style="fill:#000000;fill-opacity:1;fill-rule:evenodd;stroke:#000000;stroke-width:0.62931746px;stroke-linecap:butt;stroke-linejoin:miter;stroke-opacity:1" />
      <path
         inkscape:connector-curvature="0"
         id="path4203"
         d="m 193.74485,399.08544 c 0,0 26.07172,35.51148 76.64187,16.63196 0,0 7.64172,-3.14659 7.1922,-10.56355 -0.44951,-7.41695 -26.74599,-10.56354 -26.74599,-10.56354 0,0 -37.53429,-6.96744 -57.08808,4.49513 z"
         style="fill:#f5f5f5;fill-opacity:1;fill-rule:evenodd;stroke:#000000;stroke-width:0.62931746px;stroke-linecap:butt;stroke-linejoin:miter;stroke-opacity:1" />
      <path
         inkscape:connector-curvature="0"
         id="path4203-1"
         d="m 228.5867,390.3961 c -5.75335,0.0461 -11.84539,0.50022 -17.58036,1.66548 l -0.0504,0.65267 c 0,0 5.17009,17.9805 21.35255,18.87953 16.04055,0.89113 27.87958,-11.90539 29.83726,-17.82124 -4.38477,-0.86846 -7.81115,-1.28322 -7.81115,-1.28322 0,0 -11.87616,-2.20433 -25.74789,-2.09322 z"
         style="fill:#000000;fill-opacity:1;fill-rule:evenodd;stroke:#000000;stroke-width:0.62931746px;stroke-linecap:butt;stroke-linejoin:miter;stroke-opacity:1" />
      <path
         inkscape:connector-curvature="0"
         id="path4203-7"
         d="m 553.85354,391.12753 c 0,0 -26.07172,35.51149 -76.64187,16.63196 0,0 -7.64171,-3.14658 -7.1922,-10.56354 0.44951,-7.41696 26.74599,-10.56354 26.74599,-10.56354 0,0 37.53429,-6.96744 57.08808,4.49512 z"
         style="fill:#ffffff;fill-opacity:1;fill-rule:evenodd;stroke:#000000;stroke-width:0.62931746px;stroke-linecap:butt;stroke-linejoin:miter;stroke-opacity:1" />
      <path
         sodipodi:nodetypes="sccsccs"
         inkscape:connector-curvature="0"
         id="path4203-1-1"
         d="m 515.36998,382.4382 c 5.75182,-0.14032 11.05874,-0.62356 16.79371,0.5417 l 2.63511,0.42791 c 0,0 -6.96815,19.32904 -23.1506,20.22806 -16.04055,0.89114 -28.44148,-9.99496 -30.39916,-15.91081 4.38477,-0.86846 8.48542,-2.06986 8.48542,-2.06986 0,0 11.76379,-2.8786 25.63552,-3.217 z"
         style="fill:#000000;fill-opacity:1;fill-rule:evenodd;stroke:#000000;stroke-width:0.62931746px;stroke-linecap:butt;stroke-linejoin:miter;stroke-opacity:1" />
      <path
         inkscape:connector-curvature="0"
         id="path4244"
         d="m 99.79675,509.89025 2.69707,-2.69707 1.79805,1.79805 2.02281,-1.79805 3.37134,0 2.02281,2.02281 4.71988,1.34853 0.89902,1.79806 1.34853,1.79804 4.49513,1.5733 1.57329,2.92183 6.96745,1.12378 2.24756,1.79805 2.0228,2.69708 2.69708,6.06841 3.82086,-0.44951 0.67427,6.06842 3.82085,2.0228 1.12378,2.69708 0,6.74268 3.5961,2.02281 -0.44951,2.47232 0,5.61891 -0.44951,6.51792 -4.71988,0.22477 0,4.71988 3.82085,6.29317 2.02281,0 5.16939,3.5961 5.39415,2.69708 3.14659,6.29317 -3.82086,8.99025 -0.89902,1.34854 1.57329,9.43976 0.22476,5.6189 3.14658,3.5961 1.5733,2.47232 0,10.56354 1.79805,0.67427 0.67427,3.5961 5.39415,7.1922 5.16939,0 5.61891,2.92183 4.71988,-0.67427 6.29317,-6.74268 1.34854,-4.71988 6.51793,0 -1.34854,6.96744 2.24756,1.79805 0.44952,3.5961 -3.14659,3.82085 1.34854,3.14659 -3.37135,0.44951 0.44952,1.79805 1.34854,2.24756 1.57329,6.29318 10.7883,8.99025 8.54073,1.79805 4.04561,-6.74269 8.54074,-5.84366 4.94464,4.94464 3.14659,0 15.73294,9.88927 4.49512,2.69708 8.54073,2.24756 13.93489,3.14659 13.48538,-2.69708 18.87952,3.5961 12.13683,0 12.13684,3.14659 3.5961,0 3.14659,-2.24757 5.39415,2.24757 4.04561,0 7.1922,3.5961 7.1922,0 6.74269,0 11.68732,-0.89902 7.1922,-0.89904 7.1922,-3.59609 5.84366,0 7.64172,-0.44952 2.69707,0.89903 11.23781,-1.34854 1.79805,0.89903 6.74269,-4.49513 4.94463,1.34854 8.99025,-2.24756 3.14659,-2.24756 6.74268,-8.09123 13.03587,-0.89902 0,-3.5961 8.99025,-5.39415 4.94464,-4.49512 6.29317,-1.34854 2.69707,-3.59611 5.84367,-4.04561 4.04561,-7.64171 8.09122,0 7.1922,0 2.24756,-2.69707 9.88928,-5.39415 4.04561,0 8.99025,0 4.94463,-2.69708 0,-4.49512 4.49513,-5.84366 3.5961,-2.24756 2.24757,-8.09123 -5.39415,-5.39415 0.89902,-3.14658 1.79805,-1.79806 5.84366,-4.49512 7.1922,-3.5961 6.29318,-13.03587 7.1922,-1.79804 3.14658,-8.54074 0.89903,-0.89903 4.94463,-4.04561 -0.89902,-3.14658 0.44951,-11.68733 5.84366,0 7.64172,1.79805 4.94463,-5.84366 3.14659,-10.7883 1.79805,-13.93488 1.34854,-12.13684 4.04561,-6.74269 2.69708,-5.39415 3.14658,-12.58635 4.04561,-3.5961 0,-4.04561 c 0,0 -0.89902,8.99025 1.79805,-4.49513 C 644.15634,454.60022 650,451.00412 650,451.00412 l -1.79805,6.74269 -1.34854,5.84366 0,6.74269 -1.34854,14.83391 -2.69707,8.54074 0,7.1922 -4.04561,11.23781 -1.34854,6.74268 -4.04561,14.3844 -3.14659,8.54074 -4.49512,10.33879 -8.09123,7.19219 0,4.94465 -5.84366,4.94463 -2.24756,4.49513 0,0 -2.69708,2.24755 -1.34854,3.59611 -4.04561,5.39415 -1.34853,3.59609 -1.79806,3.14659 -1.34853,0 -2.69708,4.49513 0,1.79804 -8.09122,6.74269 c 0,0 0.44951,-1.79804 0,0 -0.44951,1.79805 -6.74269,12.58635 -6.74269,12.58635 l -3.59609,8.09123 -6.74269,2.69707 0,5.39415 -0.89903,5.84366 -1.79805,1.34854 -7.19219,5.84366 0,9.43976 -1.79806,4.49513 -4.49512,10.7883 -3.5961,0.89903 -8.09122,4.49512 -5.84367,1.79805 -8.09122,6.29317 -8.54074,4.49512 -2.24756,4.94465 c 0,0 -1.79805,0.89902 -4.04561,0.89902 -2.24757,0 -9.43977,0 -9.43977,0 l -5.39415,0 -4.49512,0 -1.34854,2.24756 -4.49512,10.33879 -4.94464,4.04561 -0.89902,3.14659 -8.09123,4.49512 -8.09122,4.49512 -14.3844,6.74269 -2.24756,4.49513 -7.64172,4.04561 -8.99024,6.74269 c 0,0 -0.89903,1.79805 -3.59611,2.69707 -2.69707,0.89903 -15.73293,0.89903 -15.73293,0.89903 l -6.29318,0.89902 -8.99024,0 c 0,0 -5.39415,0 -7.64172,1.34854 -2.24756,1.34854 -19.32903,1.34854 -19.32903,1.34854 l -16.18245,-1.79805 -7.1922,0.89902 -3.14659,-2.24756 -6.29317,0.89903 -6.74269,-4.94464 -7.64171,0.44951 -6.29317,-3.14659 -5.39415,2.69708 -5.39415,0 -7.1922,-2.69708 2.69707,-4.49512 -3.5961,-0.89903 -6.29317,-0.89902 -2.69708,0.89902 -8.09122,-4.49512 -8.09122,-2.24756 -10.7883,-3.5961 -8.99026,-3.59611 -3.14659,-4.49512 -3.59609,0.44951 -4.94464,-2.69707 -5.39415,-2.24756 -1.79805,-4.04561 -5.84366,-3.14659 -5.39415,0.44951 1.34854,2.24756 -5.39415,-3.59609 -7.1922,-6.74269 -5.39415,-4.04562 0.89902,-4.49512 -4.49512,-0.89903 0,-4.49512 -6.74269,-3.5961 -3.5961,-6.29317 -5.39415,-8.09123 -4.94464,-0.89903 -3.59609,-10.33878 -6.29318,-0.44951 0,-3.5961 -2.69707,-5.84366 -5.84366,-1.79806 -1.79806,-12.13683 -3.14659,-3.5961 -7.19219,-0.89903 -4.04561,-7.1922 -8.54074,-9.43976 -2.69707,-13.93489 1.34853,-6.29317 -6.29318,-3.5961 -8.09122,-16.63196 -3.14659,-3.5961 -0.4495,-3.59609 -9.43977,-13.48538 -0.44951,-10.7883 -6.74269,-8.54074 -0.89903,-13.48537 z"
         style="fill:#df0005;fill-opacity:1;fill-rule:evenodd;stroke:none;stroke-width:1px;stroke-linecap:butt;stroke-linejoin:miter;stroke-opacity:1" />
    </g>
  </g>
</svg>
