<?xml version="1.0" encoding="UTF-8" standalone="no"?>
<!-- Created with Inkscape (http://www.inkscape.org/) -->

<svg
   xmlns:dc="http://purl.org/dc/elements/1.1/"
   xmlns:cc="http://creativecommons.org/ns#"
   xmlns:rdf="http://www.w3.org/1999/02/22-rdf-syntax-ns#"
   xmlns:svg="http://www.w3.org/2000/svg"
   xmlns="http://www.w3.org/2000/svg"
   xmlns:xlink="http://www.w3.org/1999/xlink"
   xmlns:sodipodi="http://sodipodi.sourceforge.net/DTD/sodipodi-0.dtd"
   xmlns:inkscape="http://www.inkscape.org/namespaces/inkscape"
   width="450mm"
   height="350mm"
   viewBox="0 0 1594.4881 1240.1575"
   id="svg2"
   version="1.1"
   inkscape:version="0.91 r13725"
   sodipodi:docname="kylo.svg">
  <defs
     id="defs4">
    <linearGradient
       id="linearGradient4507"
       inkscape:collect="always">
      <stop
         id="stop4509"
         offset="0"
         style="stop-color:#000000;stop-opacity:1" />
      <stop
         id="stop4511"
         offset="1"
         style="stop-color:#323232;stop-opacity:1" />
    </linearGradient>
    <linearGradient
       inkscape:collect="always"
       id="linearGradient4340">
      <stop
         style="stop-color:#000000;stop-opacity:1;"
         offset="0"
         id="stop4342" />
      <stop
         style="stop-color:#4f4f4f;stop-opacity:1"
         offset="1"
         id="stop4344" />
    </linearGradient>
    <linearGradient
       inkscape:collect="always"
       id="linearGradient4389">
      <stop
         style="stop-color:#232428;stop-opacity:1"
         offset="0"
         id="stop4391" />
      <stop
         style="stop-color:#000000;stop-opacity:1"
         offset="1"
         id="stop4393" />
    </linearGradient>
    <linearGradient
       id="linearGradient4278"
       inkscape:collect="always">
      <stop
         id="stop4280"
         offset="0"
         style="stop-color:#2f333e;stop-opacity:1" />
      <stop
         id="stop4282"
         offset="1"
         style="stop-color:#030303;stop-opacity:1" />
    </linearGradient>
    <linearGradient
       inkscape:collect="always"
       id="linearGradient4254">
      <stop
         style="stop-color:#2f333e;stop-opacity:1"
         offset="0"
         id="stop4256" />
      <stop
         style="stop-color:#1f1e23;stop-opacity:1"
         offset="1"
         id="stop4258" />
    </linearGradient>
    <linearGradient
       inkscape:collect="always"
       id="linearGradient4246">
      <stop
         style="stop-color:#ffffff;stop-opacity:1"
         offset="0"
         id="stop4248" />
      <stop
         style="stop-color:#404040;stop-opacity:1"
         offset="1"
         id="stop4250" />
    </linearGradient>
    <linearGradient
       id="linearGradient4321"
       inkscape:collect="always">
      <stop
         id="stop4323"
         offset="0"
         style="stop-color:#0d0d0d;stop-opacity:1" />
      <stop
         id="stop4325"
         offset="1"
         style="stop-color:#020202;stop-opacity:0" />
    </linearGradient>
    <linearGradient
       inkscape:collect="always"
       xlink:href="#linearGradient4321"
       id="linearGradient4315"
       x1="-556.98218"
       y1="487.8764"
       x2="-556.79688"
       y2="480.5528"
       gradientUnits="userSpaceOnUse" />
    <linearGradient
       gradientTransform="matrix(0.84983345,0,0,1,-79.170678,-12.56383)"
       inkscape:collect="always"
       xlink:href="#linearGradient4321"
       id="linearGradient4315-4"
       x1="-556.98218"
       y1="487.8764"
       x2="-556.79688"
       y2="480.5528"
       gradientUnits="userSpaceOnUse" />
    <linearGradient
       gradientTransform="matrix(0.66629654,0,0,1,-176.95543,-25.695813)"
       inkscape:collect="always"
       xlink:href="#linearGradient4321"
       id="linearGradient4315-1"
       x1="-556.98218"
       y1="487.8764"
       x2="-556.79688"
       y2="480.5528"
       gradientUnits="userSpaceOnUse" />
    <filter
       inkscape:collect="always"
       style="color-interpolation-filters:sRGB"
       id="filter4484"
       x="-0.03006305"
       width="1.0601261"
       y="-0.019972077"
       height="1.0399442">
      <feGaussianBlur
         inkscape:collect="always"
         stdDeviation="2.7195222"
         id="feGaussianBlur4486" />
    </filter>
    <filter
       inkscape:collect="always"
       style="color-interpolation-filters:sRGB"
       id="filter4525"
       x="-0.051083092"
       width="1.1021662"
       y="-0.027793523"
       height="1.0555871">
      <feGaussianBlur
         inkscape:collect="always"
         stdDeviation="3.6490268"
         id="feGaussianBlur4527" />
    </filter>
    <linearGradient
       gradientTransform="matrix(0.84983345,0,0,1,-79.170678,-12.56383)"
       inkscape:collect="always"
       xlink:href="#linearGradient4321"
       id="linearGradient4655"
       x1="-556.98218"
       y1="487.8764"
       x2="-556.79688"
       y2="480.5528"
       gradientUnits="userSpaceOnUse" />
    <linearGradient
       gradientTransform="matrix(0.66629654,0,0,1,-176.95543,-25.695813)"
       inkscape:collect="always"
       xlink:href="#linearGradient4321"
       id="linearGradient4657"
       x1="-556.98218"
       y1="487.8764"
       x2="-556.79688"
       y2="480.5528"
       gradientUnits="userSpaceOnUse" />
    <linearGradient
       gradientTransform="matrix(0.84983345,0,0,1,-79.170678,-12.56383)"
       inkscape:collect="always"
       xlink:href="#linearGradient4321"
       id="linearGradient5045"
       x1="-556.98218"
       y1="487.8764"
       x2="-556.79688"
       y2="480.5528"
       gradientUnits="userSpaceOnUse" />
    <linearGradient
       gradientTransform="matrix(0.66629654,0,0,1,-176.95543,-25.695813)"
       inkscape:collect="always"
       xlink:href="#linearGradient4321"
       id="linearGradient5047"
       x1="-556.98218"
       y1="487.8764"
       x2="-556.79688"
       y2="480.5528"
       gradientUnits="userSpaceOnUse" />
    <filter
       inkscape:collect="always"
       style="color-interpolation-filters:sRGB"
       id="filter5105"
       x="-0.042987417"
       width="1.0859748"
       y="-0.030966526"
       height="1.061933">
      <feGaussianBlur
         inkscape:collect="always"
         stdDeviation="9.9571778"
         id="feGaussianBlur5107" />
    </filter>
    <radialGradient
       inkscape:collect="always"
       xlink:href="#linearGradient4246"
       id="radialGradient4252"
       cx="385.70865"
       cy="464.35269"
       fx="385.70865"
       fy="464.35269"
       r="242.6459"
       gradientTransform="matrix(1.4629679,0,0,1.1012009,-177.74988,-49.620811)"
       gradientUnits="userSpaceOnUse" />
    <radialGradient
       inkscape:collect="always"
       xlink:href="#linearGradient4254"
       id="radialGradient4260"
       cx="382.97369"
       cy="342.12457"
       fx="382.97369"
       fy="342.12457"
       r="279.22806"
       gradientTransform="matrix(1.0651178,-0.00725347,0.00976544,1.4339831,-29.106821,-204.40079)"
       gradientUnits="userSpaceOnUse" />
    <radialGradient
       inkscape:collect="always"
       xlink:href="#linearGradient4278"
       id="radialGradient4276"
       cx="382.48889"
       cy="469.31259"
       fx="382.48889"
       fy="469.31259"
       r="144.70621"
       gradientTransform="matrix(1,0,0,0.21305686,0,369.32233)"
       gradientUnits="userSpaceOnUse" />
    <radialGradient
       inkscape:collect="always"
       xlink:href="#linearGradient4389"
       id="radialGradient4373"
       cx="317"
       cy="769.04083"
       fx="317"
       fy="769.04083"
       r="19.785713"
       gradientTransform="matrix(1.8542186,0.028513,-0.00935776,0.60854108,-263.59083,292.00937)"
       gradientUnits="userSpaceOnUse" />
    <radialGradient
       inkscape:collect="always"
       xlink:href="#linearGradient4389"
       id="radialGradient4373-3"
       cx="317"
       cy="769.04083"
       fx="317"
       fy="769.04083"
       r="19.785713"
       gradientTransform="matrix(1.0772523,0.00990217,-0.00543661,0.21133781,-38.278568,670.48389)"
       gradientUnits="userSpaceOnUse" />
    <radialGradient
       inkscape:collect="always"
       xlink:href="#linearGradient4389"
       id="radialGradient4373-3-9"
       cx="317"
       cy="769.04083"
       fx="317"
       fy="769.04083"
       r="19.785713"
       gradientTransform="matrix(1.0772523,0.00990217,-0.00543661,0.21133781,126.352,670.50292)"
       gradientUnits="userSpaceOnUse" />
    <radialGradient
       inkscape:collect="always"
       xlink:href="#linearGradient4278"
       id="radialGradient4478"
       cx="383.93103"
       cy="710.75928"
       fx="383.93103"
       fy="710.75928"
       r="171.60529"
       gradientTransform="matrix(0.99968835,0.02496394,-0.04994851,2.0002032,35.264836,-713.32225)"
       gradientUnits="userSpaceOnUse" />
    <radialGradient
       inkscape:collect="always"
       xlink:href="#linearGradient4340"
       id="radialGradient4497"
       cx="1165.3646"
       cy="409.3855"
       fx="1165.3646"
       fy="409.3855"
       r="606.41736"
       gradientTransform="matrix(0.89483314,0,0,0.69023966,-225.90623,207.45174)"
       gradientUnits="userSpaceOnUse" />
    <radialGradient
       inkscape:collect="always"
       xlink:href="#linearGradient4507"
       id="radialGradient4513"
       gradientUnits="userSpaceOnUse"
       gradientTransform="matrix(-1.3073285,0.01768961,-0.01799813,-1.3301289,2354.5152,1079.9988)"
       cx="1168.2576"
       cy="429.46182"
       fx="1168.2576"
       fy="429.46182"
       r="804.66339" />
    <filter
       inkscape:collect="always"
       style="color-interpolation-filters:sRGB"
       id="filter4316"
       x="-0.13816618"
       width="1.2763324"
       y="-0.17911993"
       height="1.3582399">
      <feGaussianBlur
         inkscape:collect="always"
         stdDeviation="69.821977"
         id="feGaussianBlur4318" />
    </filter>
  </defs>
  <sodipodi:namedview
     id="base"
     pagecolor="#ffffff"
     bordercolor="#666666"
     borderopacity="1.0"
     inkscape:pageopacity="0.0"
     inkscape:pageshadow="2"
     inkscape:zoom="0.24748737"
     inkscape:cx="653.92568"
     inkscape:cy="588.18399"
     inkscape:document-units="px"
     inkscape:current-layer="layer1"
     showgrid="false"
     showguides="true"
     inkscape:guide-bbox="true"
     inkscape:window-width="1365"
     inkscape:window-height="717"
     inkscape:window-x="0"
     inkscape:window-y="23"
     inkscape:window-maximized="1">
    <sodipodi:guide
       position="254.55844,662.66008"
       orientation="1,0"
       id="guide4330" />
  </sodipodi:namedview>
  <metadata
     id="metadata7">
    <rdf:RDF>
      <cc:Work
         rdf:about="">
        <dc:format>image/svg+xml</dc:format>
        <dc:type
           rdf:resource="http://purl.org/dc/dcmitype/StillImage" />
        <dc:title />
      </cc:Work>
    </rdf:RDF>
  </metadata>
  <g
     inkscape:label="Layer 1"
     inkscape:groupmode="layer"
     id="layer1"
     transform="translate(0,187.79528)">
    <path
       inkscape:connector-curvature="0"
       style="fill:url(#radialGradient4513);fill-opacity:1;fill-rule:evenodd;stroke:none;stroke-width:1px;stroke-linecap:butt;stroke-linejoin:miter;stroke-opacity:1"
       d="M 816.55344,117.30829 C 638.18953,116.21439 422.44211,525.53255 312.63476,703.82422 290.65319,739.5152 293.59011,813.71552 279.28999,818.56735 143.56026,864.61854 99.449507,941.06511 99.449507,941.06511 l 718.769483,0.47713 0,0.002 1.27058,0 1.26887,0 0,-0.002 718.77126,-0.47713 c 0,0 -66.7216,-124.76626 -179.8423,-122.49776 -15.0978,0.30277 -11.3614,-79.05215 -33.343,-114.74313 C 1215.9337,524.5527 998.41628,111.7247 819.48957,117.37994 c -0.97833,-0.0309 -1.95548,-0.0656 -2.93613,-0.0717 z"
       id="path4334" />
    <g
       id="g4248"
       transform="matrix(1.0727966,0,0,1.1013431,406.4869,-71.594126)">
      <path
         transform="matrix(1.0045763,0,0,0.89081868,-1.7462919,44.795499)"
         inkscape:connector-curvature="0"
         id="path4203-0"
         d="m 386.1582,126.20703 c -3.3473,0.0247 -5.18164,0.13672 -5.18164,0.13672 l 0,0.043 C 368.15199,125.8253 172.6532,120.74447 143.6367,332.15039 c 0,0 8.5715,111.42829 -40,287.14258 0,0 2.8586,34.28459 24.2871,28.57031 l 28.5703,34.28711 c 0,0 -11.4279,4.99832 15.7149,37.85547 0,0 41.4283,72.8577 57.14256,85.71484 15.71429,12.85714 3.50031,32.86059 9.64258,36.78516 3.67185,2.3461 28.92969,3.92969 28.92969,3.92969 l 1.36133,-0.0859 c 3.1768,8.28225 5.0664,13.54492 5.0664,13.54492 5.55959,21.358 2.84637,26.93481 8.71485,34.31836 2.93594,3.69392 13.42773,3.18164 13.42773,3.18164 0,0 9.41515,0.66423 12.69531,0.49024 7.5794,-0.40203 8.73438,-3.70313 8.73438,-3.70313 21.54861,-30.03746 57.05402,-24.3206 63.05273,-23.10742 l 0,0.1582 c 0,0 0.33163,-0.0664 0.39063,-0.0801 0.26826,0.0581 0.84179,0.17188 0.84179,0.17188 l 0,-0.3418 c 5.99344,-1.21241 41.50397,-6.93298 63.05469,23.10742 0,0 1.15302,3.3011 8.73242,3.70313 3.28016,0.17399 12.69532,-0.48828 12.69532,-0.48828 0,0 10.49179,0.51032 13.42773,-3.1836 5.86848,-7.38355 3.15525,-12.9584 8.71484,-34.3164 0,0 1.8912,-5.26372 5.06836,-13.54688 l 1.36133,0.0859 c 0,0 25.25589,-1.58163 28.92774,-3.92773 6.14227,-3.92457 -6.07172,-23.92802 9.64257,-36.78516 15.71428,-12.85714 57.14258,-85.71484 57.14258,-85.71484 27.14286,-32.85718 15.71485,-37.85743 15.71485,-37.85743 l 28.57226,-34.28515 c 21.42858,5.71428 24.28516,-28.57227 24.28516,-28.57227 -48.57143,-175.71429 -40,-287.14258 -40,-287.14258 C 592.36133,133.97821 418.51542,125.96807 386.1582,126.20703 Z"
         style="fill:#000000;fill-opacity:1;fill-rule:evenodd;stroke:none;stroke-width:1px;stroke-linecap:butt;stroke-linejoin:miter;stroke-opacity:1;filter:url(#filter5105)" />
      <path
         inkscape:connector-curvature="0"
         id="path4203"
         d="m 386.73259,156.57707 c -3.36261,0.022 -5.20535,0.12179 -5.20535,0.12179 l 0,0.0383 c -12.88326,-0.50012 -209.2767,-5.02622 -238.42599,183.29812 0,0 8.61065,99.2624 -40.18306,255.79198 0,0 2.87162,30.54135 24.39826,25.45096 l 28.70107,30.5436 c 0,0 -11.48032,4.4526 15.78675,33.72236 0,0 41.61789,64.903 57.40409,76.35638 15.7862,11.45338 3.51633,29.27283 9.6867,32.76891 3.68866,2.08995 29.06208,3.50064 29.06208,3.50064 l 114.80816,-6.36275 0,-0.0139 113.57207,6.29489 c 0,0 25.37146,-1.40896 29.06011,-3.49891 6.17038,-3.49608 -6.0995,-21.31551 9.68671,-32.76889 15.78619,-11.45339 57.40408,-76.35639 57.40408,-76.35639 27.26707,-29.26979 15.78676,-33.72413 15.78676,-33.72413 l 28.70302,-30.54185 c 21.52665,5.09039 24.39629,-25.45271 24.39629,-25.45271 C 612.58063,439.21591 621.19129,339.9535 621.19129,339.9535 593.87937,163.4998 419.23789,156.3642 386.73259,156.57707 Z"
         style="fill:url(#radialGradient4260);fill-opacity:1;fill-rule:evenodd;stroke:none;stroke-width:1px;stroke-linecap:butt;stroke-linejoin:miter;stroke-opacity:1" />
      <path
         id="path4285"
         d="m 543.49285,322.29181 c -6.51741,-0.11272 -13.08808,0.82594 -19.54607,2.97346 -45.92348,15.27117 -142.07692,20.36181 -142.07692,20.36181 l 0,0.009 c -6.60346,-0.36623 -96.59738,-5.57756 -140.83689,-20.28874 -45.92349,-15.27118 -97.58881,30.5416 -94.7186,81.44553 2.87023,50.90392 -20.09069,127.25957 8.61149,157.80192 l 4.30477,92.9009 28.70302,-12.72722 -14.35249,-81.44554 c 0,0 -26.40576,-9.37821 -22.96006,-103.08094 l 1.07521,-29.27 1.07717,-11.77029 c 0,0 -10.04633,-96.0824 107.27384,-75.08453 0,0 90.58298,20.55528 122.76825,16.26266 32.73614,3.93789 122.11489,-16.3427 122.11489,-16.3427 117.32017,-20.99788 107.2758,75.08279 107.2758,75.08279 l 1.07521,11.77203 1.07718,29.27001 c 3.44571,93.70273 -22.96203,103.08094 -22.96203,103.08094 l -14.35053,81.44553 28.70106,12.72549 4.30477,-92.89917 c 28.70218,-30.54235 5.74126,-106.89799 8.61149,-157.80191 2.4666,-43.74557 -35.34194,-83.73187 -75.17056,-84.42073 z m 3.01569,28.81416 c -0.68689,-0.009 -1.37971,-0.008 -2.07783,0.004 -4.62201,0.0754 -9.48909,0.6005 -14.60167,1.61461 -47.8635,9.49393 -147.65702,19.46056 -147.65702,19.46056 l 0,0.0157 c -1.90783,-0.191 -99.62327,-9.99457 -147.02131,-19.39618 -54.53415,-10.81709 -81.24288,34.09792 -78.37266,85.00184 0.79626,14.12186 -1.04962,23.735 -0.76912,35.46747 0.57203,23.92701 0.15351,43.86447 4.034,53.91888 -0.28797,7.30449 1.878,20.17632 16.73444,34.22867 0,0 12.17774,28.34619 14.20729,46.34345 2.02955,17.99726 20.80179,21.59539 20.80179,21.59539 l 16.23607,-6.749 27.90643,-18.4462 c 0,0 -36.0231,-11.24805 -39.57481,-32.39483 -3.55172,-21.14677 31.96359,0.89958 35.51531,16.64717 0,0 4.05993,7.64915 13.19291,-7.64851 9.13297,-15.29767 6.0882,-15.29844 -14.2073,-20.69762 0,0 -11.16177,-0.45 -7.10267,-17.99732 0,0 33.48812,12.14823 37.03983,22.49665 l 31.96397,-4.94996 10.14778,-23.39617 25.87766,-29.24565 34.32629,-0.89951 0,-0.0469 33.08823,0.86647 25.87766,29.24565 10.14779,23.39616 31.96593,4.94996 c 3.55171,-10.34842 37.03786,-22.49665 37.03786,-22.49665 4.0591,17.54732 -7.10266,17.99732 -7.10266,17.99732 -20.29551,5.39918 -23.34028,5.39821 -14.2073,20.69588 9.13297,15.29766 13.19291,7.64851 13.19291,7.64851 3.55171,-15.7476 39.06898,-37.79394 35.51726,-16.64717 -3.55171,21.14678 -39.57677,32.39482 -39.57677,32.39482 l 27.90642,18.44796 16.23607,6.74899 c 0,0 18.77421,-3.59988 20.80376,-21.59713 2.02955,-17.99726 14.20534,-46.34345 14.20534,-46.34345 14.85641,-14.05235 17.02239,-26.92295 16.73444,-34.22692 3.88048,-10.05488 3.46196,-29.99363 4.034,-53.92063 0.28049,-11.73248 -1.56343,-21.3456 -0.76717,-35.46746 2.5605,-45.41088 -18.41924,-86.0548 -61.69315,-86.6182 z m -11.8077,16.4784 c 84.00542,-0.93073 66.32363,77.45773 66.32363,77.45773 l 0.35905,29.58666 1.83846,42.52964 c -0.13564,0.28169 -0.22662,0.48251 -0.3571,0.7551 -1.64553,-5.2628 -4.74418,-18.40277 -5.90777,-45.34475 -1.6145,-37.38258 -1.79277,-36.74652 -11.12097,-69.35685 -4.95562,-17.32423 -26.06153,-23.2894 -48.76708,-23.54928 -20.03432,-0.22931 -41.31573,3.98458 -53.8449,8.75682 -26.7289,10.18078 -101.3543,11.77029 -101.3543,11.77029 l 0,0.0487 c -6.48759,-0.15894 -74.65656,-2.04164 -100.11623,-11.73898 -26.72891,-10.18078 -93.28181,-17.81612 -102.61002,14.79421 -9.32821,32.61033 -9.50844,31.97427 -11.12293,69.35684 -1.16347,26.93925 -4.26212,40.07791 -5.90778,45.34128 -0.12989,-0.27134 -0.22013,-0.47127 -0.35513,-0.75163 l 1.83649,-42.52963 0.35906,-29.58841 c 0,0 -21.52636,-95.44385 95.79381,-74.44599 0,0 42.73157,9.13174 79.76767,13.84597 17.37281,2.21134 33.09728,3.8006 43.29292,2.37841 l 0,-0.005 c 10.20695,1.27567 25.63218,-0.28815 42.65526,-2.45498 37.03611,-4.71423 79.76964,-13.84596 79.76964,-13.84596 10.99876,-1.96855 20.77801,-2.91371 29.46822,-3.00999 z m 6.76127,31.37179 c 19.90306,0.0543 36.09244,3.37188 40.96396,13.324 14.1717,28.95161 2.51144,91.46724 2.51144,91.46724 0.35878,-39.29147 0.35906,-42.47271 -4.66382,-73.17414 -5.02289,-30.70144 -86.64416,-21.4751 -122.34249,-11.13524 -35.69835,10.33986 -76.06134,9.38492 -76.06134,9.38492 l 0,0.0957 c -6.0305,0.0673 -42.1888,0.0536 -74.82327,-9.39883 -35.69834,-10.33986 -117.31961,-19.5662 -122.34249,11.13523 -5.02288,30.70144 -5.0226,33.88267 -4.66383,73.17415 0,0 -11.66026,-62.51738 2.51144,-91.46899 14.1717,-28.95161 124.1375,-1.75007 142.61453,-1.43192 18.39829,0.3168 41.06028,4.10073 57.72389,2.09133 16.5848,1.80036 38.81479,-1.85956 56.92338,-2.17137 12.12555,-0.20878 63.65187,-11.99586 101.6486,-11.89207 z m -5.13668,25.74501 c 13.85094,-0.022 30.69704,2.24419 35.33873,12.7133 8.25188,18.61175 -0.35907,46.13118 -0.35907,46.13118 6.81676,25.77011 -1.07717,60.13026 -1.07717,60.13026 0,0 -17.93773,19.72577 -21.16673,10.65851 -3.22899,-9.06726 16.86196,-40.88371 16.86196,-40.88371 -5.56105,-11.9306 -15.60709,-28.47289 -12.91626,-51.53873 2.69084,-23.06584 -11.6468,-25.63888 -11.6468,-25.63888 -4.33415,-2.28771 -9.97887,-3.73535 -17.84889,-3.68333 -14.3842,0.0951 -38.06412,3.69874 -77.69378,9.35186 -32.89356,4.69224 -63.94756,5.17615 -63.94756,5.17615 l 0,0.0453 c -3.284,-0.0643 -31.71125,-0.71975 -62.70754,-5.14135 -39.62965,-5.65311 -63.31153,-9.25674 -77.69573,-9.35185 -7.87002,-0.052 -13.51279,1.39561 -17.84693,3.68332 0,0 -14.33961,2.57304 -11.64877,25.63888 2.69083,23.06584 -7.3552,39.60988 -12.91626,51.54048 0,0 20.09292,31.8147 16.86394,40.88196 -3.229,9.06726 -21.16871,-10.65851 -21.16871,-10.65851 0,0 -7.89394,-34.36015 -1.07718,-60.13026 0,0 -8.60896,-27.51943 -0.35708,-46.13118 8.25187,-18.61175 55.07118,-11.29356 55.07118,-11.29356 0,0 63.32503,8.74886 72.65323,9.70331 9.29639,0.95119 43.53111,7.58834 61.87563,5.58675 18.53215,1.71594 51.86891,-4.73178 61.02409,-5.66853 9.3282,-0.95445 72.65127,-9.70331 72.65127,-9.70331 0,0 8.96148,-1.40088 19.73443,-1.418 z m -20.76058,11.73723 c 6.40304,-0.005 11.90839,0.79062 15.55523,2.96997 11.66992,6.97393 6.59646,28.57058 6.59646,28.57058 8.62559,22.2716 3.29822,31.71975 3.29822,31.71975 0,0 9.38589,14.39906 2.02878,9.22485 -7.35713,-5.17421 -14.46041,-27.22218 -14.46041,-27.22218 l -24.10002,2.47586 -121.37519,-8.68549 0,-0.009 -0.0589,0.004 -1.1792,-0.0835 0,0.16877 -121.37322,8.68548 -24.10199,-2.47411 c 0,0 -7.10328,22.04622 -14.4604,27.22043 -7.35712,5.17421 2.02877,-9.2231 2.02877,-9.2231 0,0 -5.32737,-9.44816 3.29823,-31.71977 0,0 -5.07347,-21.59663 6.59646,-28.57057 11.66991,-6.97393 42.36768,0.22446 60.63363,2.47411 18.26596,2.24966 36.94096,6.07446 88.61658,8.09915 l 0,-0.13572 c 50.70434,-2.03729 69.26634,-5.81427 87.38048,-8.0452 12.55785,-1.54664 30.98974,-5.43261 45.07645,-5.44408 z m -103.73428,51.65704 c 6.40687,0 10.22235,1.65462 10.22235,1.65462 l 14.17198,6.36275 c 47.71737,21.31601 58.30074,14.95252 58.30074,14.95252 6.63738,5.0904 3.76716,9.86339 3.76716,9.86339 -10.04576,10.65801 4.12622,13.5206 4.12622,13.5206 l -16.86197,0.79513 -2.15239,-7.79466 c -3.229,-16.22563 -20.27203,-15.27093 -20.27203,-15.27093 0,6.04484 -3.22759,11.93036 -3.22759,11.93036 -8.96943,8.90818 -24.57681,-6.68114 -24.57681,-6.68114 l -15.07256,-20.87857 -38.38581,0.45063 0,0.0661 -37.14774,-0.43497 -15.07257,20.87857 c 0,0 -15.60541,15.58932 -24.57484,6.68114 0,0 -3.22956,-5.88726 -3.22956,-11.9321 0,0 -17.04304,-0.95296 -20.27204,15.27267 l -2.15237,7.79466 -16.86198,-0.79685 c 0,0 14.17198,-2.8626 4.12622,-13.52061 0,0 -2.87021,-4.77298 3.76716,-9.86338 0,0 10.58337,6.36349 58.30075,-14.95253 l 14.17198,-6.36275 c 0,0 8.07276,-3.49989 20.45058,-0.31839 0,0 9.06431,2.61642 19.28708,0.10266 10.07939,2.37056 18.9398,-0.18269 18.9398,-0.18269 3.86806,-0.99422 7.31602,-1.33623 10.22824,-1.33623 z"
         style="fill:url(#radialGradient4252);fill-opacity:1;fill-rule:evenodd;stroke:#1b1b1b;stroke-width:0.94598907px;stroke-linecap:butt;stroke-linejoin:miter;stroke-opacity:1"
         inkscape:connector-curvature="0" />
      <path
         id="path4209"
         d="m 496.91936,438.4831 c -5.59703,-0.0386 -11.91169,0.88612 -18.89664,2.85527 -31.93118,9.00183 -96.15286,10.74134 -96.15286,10.74134 l 0,0.0473 c -6.38441,-0.1961 -64.73511,-2.19162 -94.9148,-10.69968 -31.93117,-9.00182 -49.8692,3.80792 -49.15165,30.81341 0.71756,27.00548 12.19731,35.66001 73.90699,20.42615 0,0 23.97813,-12.57168 70.15946,-7.40325 l 0,0.0455 c 0.0723,-0.009 0.14161,-0.0143 0.21387,-0.0226 0.34413,0.0389 0.67759,0.0689 1.02419,0.10982 l 0,-0.21963 c 46.18133,-5.16843 70.15945,7.40323 70.15945,7.40323 61.70969,15.23388 73.18944,6.57746 73.907,-20.42803 0.56059,-21.09804 -10.26568,-33.53079 -30.25501,-33.66867 z"
         style="fill:url(#radialGradient4276);fill-opacity:1;fill-rule:evenodd;stroke:none;stroke-width:1px;stroke-linecap:butt;stroke-linejoin:miter;stroke-opacity:1"
         inkscape:connector-curvature="0" />
      <path
         transform="matrix(1.0045763,0,0,0.89081868,1446.933,11.632545)"
         inkscape:connector-curvature="0"
         id="path4236-9-3"
         d="m -1044.068,549.51861 c -8.3692,-0.007 -16.0005,0.26385 -16.4844,0.28125 l 0,0.0566 c -1.8228,-0.0612 -7.8585,-0.25207 -15.2519,-0.24609 -8.6372,0.007 -17.7435,0.31894 -19.625,1.54102 -5.4132,3.51603 -10.7246,13.96875 -10.7246,13.96875 l -14.5606,22.55078 c -14.2389,22.05181 -29.0234,33.95117 -29.0234,33.95117 0,0 -29.8004,21.72001 -30.8106,38.89258 -1.0101,17.17259 -20.707,26.26367 -20.707,26.26367 -27.3188,12.18272 -59.6872,39.95435 -75.1699,54.05078 2.0122,2.78437 4.3511,5.81815 7.1055,9.15234 0,0 41.4283,72.85575 57.1425,85.71289 15.7143,12.85715 3.5003,32.86251 9.6426,36.78711 3.6719,2.3461 28.9278,3.92774 28.9278,3.92774 l 114.2871,-7.14258 0,-0.0156 113.05466,7.06641 c 0,0 25.25583,-1.58163 28.92773,-3.92773 6.1423,-3.9246 -6.07172,-23.92996 9.64258,-36.78711 15.7142,-12.85714 57.14258,-85.71289 57.14258,-85.71289 2.7544,-3.33419 5.09327,-6.36798 7.10547,-9.15235 -15.4827,-14.09643 -47.85112,-41.86806 -75.16993,-54.05078 10e-6,0 -19.69693,-9.09108 -20.70703,-26.26367 -1.0102,-17.17257 -30.81054,-38.89258 -30.81054,-38.89258 0,0 -14.78447,-11.89936 -29.02344,-33.95117 l -14.56058,-22.55078 c 0,0 -5.3114,-10.45272 -10.7246,-13.96875 -1.8815,-1.22208 -10.9878,-1.53402 -19.625,-1.54102 z m 61.44729,85.97461 c 3.26451,0.0335 6.48019,1.06167 9.24805,3.74024 11.07143,10.71428 -18.21485,23.92773 -18.21485,23.92773 l -11.07229,-18.92773 c 0,0 10.24557,-8.84068 20.03909,-8.74024 z m -154.63089,0.0918 c 9.7935,-0.10044 20.0391,8.74023 20.0391,8.74023 l -11.0723,18.92774 c 0,0 -29.2863,-13.21346 -18.2148,-23.92774 2.7678,-2.67857 5.9835,-3.70675 9.248,-3.74023 z m 172.09183,16.14844 21.07226,24.64257 c 0,-3e-5 7.85719,10.71457 0,20.35743 -7.8569,9.64286 -32.14258,-5.35743 -32.14258,-5.35743 l -12.5,-22.85742 23.57032,-16.78515 z m -189.55273,0.0918 23.5703,16.78516 -12.5,22.85742 c 0,0 -24.2857,15.00028 -32.1426,5.35742 -7.8572,-9.64286 0,-20.35745 0,-20.35742 l 21.0723,-24.64258 z m 220.62499,41.69336 14.64258,13.57032 c 0,0 1.42914,15.71512 -19.28516,31.07226 -20.71438,15.35715 -16.78515,-25 -16.78515,-25 0,0 16.42773,-7.85687 21.42773,-19.64258 z m -251.69729,0.0918 c 5,11.78571 21.4278,19.64258 21.4278,19.64258 0,0 3.9292,40.35715 -16.7852,25 -20.7143,-15.35714 -19.2852,-31.07227 -19.2852,-31.07227 l 14.6426,-13.57031 z m 273.83987,20.62305 12.14258,3.57031 c -9.2857,11.42857 3.92969,40.35742 3.92969,40.35742 l -36.42969,-9.64258 20.35742,-34.28515 z m -295.98247,0.0918 20.3575,34.28516 -36.4297,9.64258 c 0,0 13.2154,-28.92885 3.9297,-40.35742 l 12.1425,-3.57032 z m 311.38091,4.97657 c 1.8362,-0.17657 5.22688,3.10072 12.45898,6.71679 12.8572,6.42857 8.21485,10 8.21485,10 -13.5714,13.57142 -3.57227,26.07032 -3.57227,26.07032 l -12.5,-5.35547 c 0,0 -8.57118,-16.07282 -7.14258,-29.28711 0.625,-5.78125 1.11282,-8.00721 2.54102,-8.14453 z m -326.77931,0.0918 c 1.4282,0.13732 1.916,2.36328 2.541,8.14453 1.4286,13.21429 -7.1426,29.28711 -7.1426,29.28711 l -12.5,5.35547 c 0,0 9.9992,-12.49889 -3.5722,-26.07031 0,0 -4.6424,-3.57143 8.2148,-10 7.2321,-3.61607 10.6228,-6.89337 12.459,-6.7168 z"
         style="fill:#000000;fill-opacity:1;fill-rule:evenodd;stroke:none;stroke-width:1px;stroke-linecap:butt;stroke-linejoin:miter;stroke-opacity:1;filter:url(#filter4484)" />
      <path
         inkscape:connector-curvature="0"
         id="path4236-9"
         d="m 398.08703,503.15484 c -8.4075,-0.006 -16.07372,0.23505 -16.55984,0.25055 l 0,0.0487 c -1.83114,-0.0545 -7.89446,-0.22455 -15.32169,-0.21923 -8.67673,0.006 -17.8247,0.28412 -19.71481,1.37277 -5.43798,3.13215 -10.77368,12.44363 -10.77368,12.44363 l -14.62724,20.08865 c -14.30406,19.64417 -29.15622,30.24434 -29.15622,30.24434 0,0 -29.93677,19.34858 -30.95159,34.64624 -1.01473,15.29766 -20.80177,23.39616 -20.80177,23.39616 -27.44381,10.8526 -59.96034,35.59208 -75.5139,48.14945 2.02141,2.48037 4.37102,5.18292 7.13802,8.15308 0,0 41.61789,64.90126 57.404,76.35465 15.78622,11.45338 3.51632,29.27453 9.68673,32.77064 3.6887,2.08995 29.06018,3.4989 29.06018,3.4989 l 114.81011,-6.36275 0,-0.0122 113.57203,6.29489 c 0,0 25.3714,-1.40896 29.06011,-3.49891 6.17041,-3.4961 -6.09948,-21.31725 9.68671,-32.77064 15.78611,-11.45338 57.40408,-76.35464 57.40408,-76.35464 2.767,-2.97016 5.11658,-5.67271 7.13798,-8.15308 -15.55355,-12.55736 -48.0701,-37.29685 -75.51393,-48.14944 0,0 -19.78707,-8.09851 -20.80179,-23.39617 -1.01482,-15.29766 -30.95154,-34.64624 -30.95154,-34.64624 0,0 -14.85212,-10.60017 -29.15623,-30.24434 L 428.57552,516.9712 c 0,0 -5.33571,-9.31148 -10.77368,-12.44363 -1.89011,-1.08866 -11.03808,-1.36653 -19.71481,-1.37276 z m 61.72848,76.58779 c 3.27945,0.0298 6.50985,0.94575 9.29037,3.33187 11.1221,9.54449 -18.2982,21.31528 -18.2982,21.31528 l -11.12295,-16.86119 c 0,0 10.29244,-7.87543 20.13078,-7.78596 z m -155.33851,0.08 c 9.83831,-0.0895 20.1308,7.78597 20.1308,7.78597 l -11.12297,16.86117 c 0,0 -29.42032,-11.77078 -18.29816,-21.31527 2.78047,-2.38612 6.01089,-3.30205 9.29033,-3.33187 z m 172.87936,14.38707 21.16869,21.95207 c 0,-3e-5 7.89316,9.54473 0,18.13477 -7.89285,8.59004 -32.28967,-4.77249 -32.28967,-4.77249 l -12.55721,-20.36182 23.67819,-14.95253 z m -190.42017,0.08 23.67816,14.95253 -12.5572,20.36182 c 0,0 -24.39684,13.36253 -32.28969,4.77249 -7.89316,-8.59004 0,-18.13479 0,-18.13477 l 21.16873,-21.95207 z m 221.63463,37.14296 14.70958,12.08869 c 0,0 1.43565,13.99933 -19.37341,27.67976 -20.80919,13.68043 -16.86196,-22.27047 -16.86196,-22.27047 0,0 16.5029,-6.99905 21.52579,-17.49798 z m -252.84913,0.08 c 5.02288,10.49893 21.52586,17.49798 21.52586,17.49798 0,0 3.94718,35.9509 -16.86201,22.27046 -20.8091,-13.68042 -19.37346,-27.67975 -19.37346,-27.67975 l 14.70961,-12.08869 z m 275.09304,18.37313 12.19814,3.18051 c -9.32819,10.18078 3.94768,35.95114 3.94768,35.95114 l -36.59641,-8.58979 20.45059,-30.54186 z m -297.33697,0.08 20.45066,30.54185 -36.59641,8.58979 c 0,0 13.27588,-25.77036 3.94768,-35.95114 l 12.19807,-3.1805 z m 312.80587,4.43495 c 1.84461,-0.15729 5.2508,2.76219 12.516,5.98345 12.91604,5.72669 8.25244,8.90819 8.25244,8.90819 -13.6335,12.08967 -3.58861,23.22392 -3.58861,23.22392 l -12.55721,-4.77076 c 0,0 -8.6104,-14.31797 -7.17526,-26.0895 0.62786,-5.15005 1.11791,-7.13297 2.55264,-7.2553 z m -328.27474,0.08 c 1.43474,0.12233 1.92477,2.10526 2.55263,7.2553 1.43514,11.77154 -7.17528,26.08951 -7.17528,26.08951 l -12.55721,4.77075 c 0,0 10.04496,-11.13425 -3.58855,-23.22393 0,0 -4.66364,-3.18149 8.2524,-8.90818 7.26519,-3.22127 10.67141,-6.14074 12.51601,-5.98345 z"
         style="fill:#1b1c1f;fill-opacity:1;fill-rule:evenodd;stroke:none;stroke-width:1px;stroke-linecap:butt;stroke-linejoin:miter;stroke-opacity:1" />
      <g
         transform="matrix(1.0045763,0,0,0.89081868,916.45128,117.44891)"
         id="g4762">
        <path
           inkscape:connector-curvature="0"
           style="fill:url(#linearGradient4315);fill-opacity:1;fill-rule:evenodd;stroke:none;stroke-width:1.12104011px;stroke-linecap:butt;stroke-linejoin:miter;stroke-opacity:1"
           d="m -478.55273,479.11914 c -0.72271,-0.0119 -1.49042,0.018 -2.30079,0.0996 -13.47404,1.35624 -50.3496,1.86523 -50.3496,1.86523 l 0,0.0723 c -3.31227,-0.0484 -36.36487,-0.55621 -49.17579,-1.8457 -6.48294,-0.65254 -10.22543,1.93619 -10.1914,3.72851 0.0409,2.15763 5.23747,3.69205 13.50195,4.06836 14.89235,0.67811 29.07566,1.01837 47.04102,1.35742 l 0,-0.11523 c 17.3869,-0.33146 31.31202,-0.66945 45.86328,-1.33203 8.26448,-0.37631 13.46105,-1.91073 13.50195,-4.06836 0.0298,-1.56828 -2.83169,-3.74696 -7.89062,-3.83008 z"
           id="path4213-3" />
        <path
           inkscape:connector-curvature="0"
           style="fill:url(#linearGradient4315-4);fill-opacity:1;fill-rule:evenodd;stroke:none;stroke-width:1.12104011px;stroke-linecap:butt;stroke-linejoin:miter;stroke-opacity:1"
           d="m -486.88086,466.55469 c -0.61418,-0.0119 -1.2664,0.02 -1.95508,0.10156 -11.45068,1.35624 -42.78906,1.86328 -42.78906,1.86328 l 0,0.0508 c -5.1576,-0.0941 -30.45776,-0.60287 -40.76953,-1.82422 -5.50942,-0.65254 -8.69103,1.93815 -8.66211,3.73047 0.0348,2.15763 4.44923,3.69205 11.47266,4.06836 12.65602,0.67811 24.71095,1.01642 39.97851,1.35547 l 0,-0.13867 c 14.28476,-0.32405 25.8869,-0.66188 37.95703,-1.3086 7.02343,-0.3763 11.43786,-1.91072 11.47266,-4.06835 0.0253,-1.56828 -2.40583,-3.74696 -6.70508,-3.83008 z"
           id="path4213-3-6" />
        <path
           inkscape:connector-curvature="0"
           style="fill:url(#linearGradient4315-1);fill-opacity:1;fill-rule:evenodd;stroke:none;stroke-width:1.12104011px;stroke-linecap:butt;stroke-linejoin:miter;stroke-opacity:1"
           d="m -496.03906,453.42383 c -0.48154,-0.0119 -0.99326,0.018 -1.53321,0.0996 -8.97771,1.35624 -33.54882,1.86523 -33.54882,1.86523 l 0,0.0645 c -2.76878,-0.0617 -24.131,-0.56965 -32.53907,-1.83984 -4.31955,-0.65254 -6.81174,1.93815 -6.78906,3.73047 0.0272,2.15763 3.48755,3.69205 8.99414,4.06836 9.92272,0.67811 19.3735,1.01837 31.34375,1.35742 l 0,-0.12305 c 11.47509,-0.32933 20.70415,-0.66612 30.33399,-1.32421 5.50659,-0.37631 8.96889,-1.91073 8.99609,-4.06836 0.0199,-1.56828 -1.88707,-3.74696 -5.25781,-3.83008 z"
           id="path4213-3-5" />
      </g>
      <path
         transform="matrix(1.0045763,0,0,0.89081868,1062.282,95.791593)"
         inkscape:connector-curvature="0"
         id="path4211-4"
         d="m -658.23047,524.76563 c -10.10884,-0.0456 -18.36133,0.64844 -18.36133,0.64844 l 0,287.85742 c 0,0 40.71374,-9.99972 64.28516,22.85742 0,0 1.15497,3.3011 8.73437,3.70313 3.28016,0.17399 12.69336,-0.49024 12.69336,-0.49023 0,0 10.49375,0.51227 13.42969,-3.18165 5.86848,-7.38355 3.15526,-12.96036 8.71484,-34.31835 0,0 29.99972,-83.57087 52.14258,-109.28516 22.14286,-25.71429 9.28432,-43.57227 -14.28711,-43.57227 -23.57143,0 -81.11745,-113.7515 -97.85547,-120.42773 -7.42178,-2.9603 -19.38725,-3.74538 -29.49609,-3.79102 z m -37.61328,0.0703 c -10.10884,0.0456 -22.0743,0.83071 -29.49609,3.79101 -16.73802,6.67623 -74.286,120.42969 -97.85743,120.42969 -23.57143,0 -36.42801,17.85602 -14.28515,43.57031 22.14286,25.71429 52.14258,109.28516 52.14258,109.28516 5.55959,21.358 2.84636,26.93481 8.71484,34.31836 2.93594,3.69392 13.42773,3.18164 13.42773,3.18164 0,0 9.41516,0.66422 12.69532,0.49023 7.5794,-0.40203 8.73437,-3.70312 8.73437,-3.70312 23.57142,-32.85714 64.28516,-22.85742 64.28516,-22.85742 l 0,-287.85743 c 0,0 -8.25249,-0.69407 -18.36133,-0.64843 z"
         style="fill:#000000;fill-opacity:1;fill-rule:evenodd;stroke:none;stroke-width:1px;stroke-linecap:butt;stroke-linejoin:miter;stroke-opacity:1;filter:url(#filter4525)" />
      <path
         inkscape:connector-curvature="0"
         id="path4211"
         d="m 399.97456,563.25304 c -10.13466,-0.0405 -18.40226,0.57691 -18.43554,0.57938 -5.74441,-0.36509 -33.51072,-1.83864 -46.85015,2.8795 -16.81461,5.94731 -74.62594,107.28102 -98.30524,107.28102 -23.6793,0 -36.59473,15.90648 -14.35053,38.81325 22.24419,22.90677 52.3812,97.35326 52.3812,97.35326 5.58503,19.0261 2.85938,23.99403 8.75472,30.57143 2.94937,3.29062 13.48919,2.83427 13.48919,2.83427 0,0 9.45823,0.5917 12.7534,0.4367 7.61409,-0.35813 8.77435,-3.2988 8.77435,-3.2988 21.64722,-26.75793 57.31512,-21.66525 63.34128,-20.58453 l 0,0.14093 c 0,0 0.33314,-0.0592 0.39241,-0.0714 0.26949,0.0518 0.84565,0.15311 0.84565,0.15311 l 0,-0.30448 c 6.02087,-1.08004 41.69391,-6.17603 63.34325,20.58452 0,0 1.1583,2.94068 8.77238,3.29882 3.29517,0.15499 12.75341,-0.43498 12.75341,-0.43498 0,0 10.53981,0.45461 13.48919,-2.836 5.89534,-6.57741 3.16969,-11.54359 8.75472,-30.5697 0,0 30.13701,-74.44648 52.3812,-97.35325 22.24419,-22.90677 9.32877,-38.815 -14.35053,-38.815 -23.6793,0 -81.49063,-101.33196 -98.30525,-107.27927 -7.45575,-2.63709 -19.47401,-3.33819 -29.62911,-3.37885 z"
         style="fill:url(#radialGradient4478);fill-opacity:1;fill-rule:evenodd;stroke:none;stroke-width:1px;stroke-linecap:butt;stroke-linejoin:miter;stroke-opacity:1" />
      <rect
         rx="3.75"
         ry="3.75"
         y="762.07654"
         x="297.71429"
         height="13.928571"
         width="38.571426"
         id="rect4365"
         style="opacity:1;fill:url(#radialGradient4373);fill-opacity:1;stroke:none;stroke-width:1;stroke-linecap:round;stroke-linejoin:round;stroke-miterlimit:4;stroke-dasharray:none;stroke-opacity:1" />
      <rect
         rx="2.1786516"
         ry="1.3023226"
         y="833.73163"
         x="287.82495"
         height="4.8371978"
         width="22.408985"
         id="rect4365-9"
         style="opacity:1;fill:url(#radialGradient4373-3);fill-opacity:1;stroke:none;stroke-width:1;stroke-linecap:round;stroke-linejoin:round;stroke-miterlimit:4;stroke-dasharray:none;stroke-opacity:1" />
      <rect
         rx="2.1786516"
         ry="1.3023226"
         y="833.75067"
         x="452.45554"
         height="4.8371978"
         width="22.408985"
         id="rect4365-9-6"
         style="opacity:1;fill:url(#radialGradient4373-3-9);fill-opacity:1;stroke:none;stroke-width:1;stroke-linecap:round;stroke-linejoin:round;stroke-miterlimit:4;stroke-dasharray:none;stroke-opacity:1" />
    </g>
    <path
       inkscape:connector-curvature="0"
       style="fill:#000000;fill-opacity:1;fill-rule:evenodd;stroke:none;stroke-width:1px;stroke-linecap:butt;stroke-linejoin:miter;stroke-opacity:1;filter:url(#filter4316)"
       d="M 1149.5178,-161.31332 C 1093.444,-160.83241 935.7574,-142.92908 848.75801,34.352696 807.6395,118.14137 788.76809,260.34825 737.76387,368.2609 655.94868,541.36215 535.59595,607.2995 566.01583,773.58121 c 0,0 -6.1624,-98.79135 234.2539,-296.78125 0,0 90.91458,-105.05586 125.25976,-214.15234 C 959.46481,154.85308 1034.8276,82.569816 1165.2444,76.962066 l 0,0.44532 c 133.3401,4.04061 210.1099,76.770714 244.455,185.867184 34.3452,109.09648 125.2598,214.15235 125.2598,214.15235 240.4163,197.9899 234.2539,296.7832 234.2539,296.7832 C 1799.633,607.92841 1679.2822,541.9891 1597.467,368.88785 1546.4627,260.9752 1527.5914,118.76832 1486.4729,34.979646 1388.711,-164.2334 1201.7833,-162.19486 1169.9865,-160.33285 l 0,-0.27344 c 0,0 -7.5286,-0.81801 -20.4687,-0.70703 z"
       id="path4338-4"
       transform="matrix(0.89483314,0,0,0.89483314,-221.7844,258.46865)" />
    <path
       style="fill:url(#radialGradient4497);fill-opacity:1;fill-rule:evenodd;stroke:none;stroke-width:1px;stroke-linecap:butt;stroke-linejoin:miter;stroke-opacity:1"
       d="M 804.3229,-0.85163341 C 754.1462,-0.4212992 613.043,15.599194 535.193,174.2368 498.3988,249.21368 481.5121,376.46511 435.8718,473.02893 362.6609,627.92566 254.96525,686.92859 282.186,835.72297 c 0,0 -5.51435,-88.40177 209.6181,-265.56969 0,0 81.3534,-94.00747 112.0866,-191.63061 30.3665,-96.45813 97.8036,-161.13959 214.5048,-166.15759 l 0,0.39848 c 119.3172,3.61568 188.0133,68.69698 218.7465,166.32012 30.7332,97.62315 112.0866,191.63062 112.0866,191.63062 215.1325,177.16793 209.6182,265.57144 209.6182,265.57144 27.2207,-148.79438 -80.4732,-207.79906 -153.6842,-362.6958 -45.6403,-96.56381 -62.527,-223.81524 -99.3212,-298.79212 C 1018.3609,-3.4646178 851.0918,-1.6404646 822.6389,0.02572364 l 0,-0.24468317 c 0,0 -6.7368,-0.73198246 -18.316,-0.63267388 z"
       id="path4338"
       inkscape:connector-curvature="0" />
  </g>
</svg>
