<?xml version="1.0" encoding="UTF-8" standalone="no"?>
<!-- Created with Inkscape (http://www.inkscape.org/) -->

<svg
   xmlns:dc="http://purl.org/dc/elements/1.1/"
   xmlns:cc="http://creativecommons.org/ns#"
   xmlns:rdf="http://www.w3.org/1999/02/22-rdf-syntax-ns#"
   xmlns:svg="http://www.w3.org/2000/svg"
   xmlns="http://www.w3.org/2000/svg"
   xmlns:sodipodi="http://sodipodi.sourceforge.net/DTD/sodipodi-0.dtd"
   xmlns:inkscape="http://www.inkscape.org/namespaces/inkscape"
   width="210mm"
   height="297mm"
   viewBox="0 0 744.09448819 1052.3622047"
   id="svg2"
   version="1.1"
   inkscape:version="0.91 r13725"
   sodipodi:docname="magneto.svg">
  <defs
     id="defs4">
    <filter
       inkscape:collect="always"
       style="color-interpolation-filters:sRGB"
       id="filter4476"
       x="-0.085734914"
       width="1.1714698"
       y="-0.052082417"
       height="1.1041648">
      <feGaussianBlur
         inkscape:collect="always"
         stdDeviation="17.385601"
         id="feGaussianBlur4478" />
    </filter>
  </defs>
  <sodipodi:namedview
     id="base"
     pagecolor="#ffffff"
     bordercolor="#666666"
     borderopacity="1.0"
     inkscape:pageopacity="0.0"
     inkscape:pageshadow="2"
     inkscape:zoom="0.35"
     inkscape:cx="366.70605"
     inkscape:cy="533.37924"
     inkscape:document-units="px"
     inkscape:current-layer="layer1"
     showgrid="false"
     showguides="true"
     inkscape:guide-bbox="true"
     inkscape:window-width="1365"
     inkscape:window-height="717"
     inkscape:window-x="0"
     inkscape:window-y="23"
     inkscape:window-maximized="1" />
  <metadata
     id="metadata7">
    <rdf:RDF>
      <cc:Work
         rdf:about="">
        <dc:format>image/svg+xml</dc:format>
        <dc:type
           rdf:resource="http://purl.org/dc/dcmitype/StillImage" />
        <dc:title></dc:title>
      </cc:Work>
    </rdf:RDF>
  </metadata>
  <g
     inkscape:label="Layer 1"
     inkscape:groupmode="layer"
     id="layer1">
    <path
       style="fill:#000000;fill-opacity:1;fill-rule:evenodd;stroke:none;stroke-width:1px;stroke-linecap:butt;stroke-linejoin:miter;stroke-opacity:1;filter:url(#filter4476)"
       d="m 384.1543,123.50586 0,0.002 c -136.34072,0.12106 -194.63672,93.99805 -194.63672,93.99805 -43.25285,44.42185 -42.27344,176.81836 -42.27344,176.81836 l -6.29883,210.32422 c 0,0 18.07306,68.29167 40,123.57226 50.71429,127.85715 158.57227,196.42774 158.57227,196.42774 l -4.4668,-151.20899 c 13.93036,13.36901 30.75514,23.24322 49.23438,21.22071 18.47835,2.02242 35.30407,-7.85071 49.23437,-21.21875 l -4.4668,151.20703 c 0,0 107.85807,-68.57059 158.57227,-196.42774 21.927,-55.28059 40,-123.57226 40,-123.57226 l -6.2969,-210.32422 c 0,0 0.9774,-132.39651 -42.2754,-176.81836 0,0 -58.2959,-93.87702 -194.63668,-93.99805 l 0,-0.002 c -0.044,0 -0.0869,0.002 -0.13086,0.002 -0.044,-2e-5 -0.0869,-0.002 -0.13086,-0.002 z"
       id="path4234-1"
       inkscape:connector-curvature="0" />
    <g
       id="g4430"
       transform="translate(804.18295,74.690373)">
      <path
         id="path4234"
         d="m -620,306.74414 -7.14258,197.14453 115.71485,137.14258 c 0,0 38.30279,84.13651 89.05273,78.58203 50.74994,5.55448 89.05469,-78.58203 89.05469,-78.58203 L -217.60742,503.88867 -224.75,306.74414 -422.375,309.59961 -620,306.74414 Z"
         style="fill:#ed9d74;fill-opacity:1;fill-rule:evenodd;stroke:none;stroke-width:1px;stroke-linecap:butt;stroke-linejoin:miter;stroke-opacity:1"
         inkscape:connector-curvature="0" />
      <path
         id="path4203"
         d="m -422.50586,48.458984 0,0.002 c -136.34072,0.121066 -194.63672,93.998046 -194.63672,93.998046 -43.25285,44.42185 -42.27344,176.81836 -42.27344,176.81836 l -6.29882,210.32422 c 0,0 18.07306,68.29168 40,123.57227 50.71429,127.85715 158.57226,196.42773 158.57226,196.42773 l -10,-338.57031 c 0,0 -20.00056,14.28487 -65.71484,-8.57227 -45.71429,-22.85715 -102.14203,-106.42912 -36.42774,-155.71484 64.68082,-48.51061 153.98039,71.91285 156.7793,75.7207 l 0,0.35157 c 0,0 0.11962,-0.16043 0.13086,-0.17579 0.0112,0.0154 0.13086,0.17579 0.13086,0.17579 l 0,-0.35157 c 2.79891,-3.80785 92.10043,-124.23131 156.78125,-75.7207 65.71429,49.28572 9.2846,132.85769 -36.42969,155.71484 -45.71428,22.85714 -65.71484,8.57227 -65.71484,8.57227 l -10,338.57031 c 0,0 107.85797,-68.57058 158.57226,-196.42773 21.92694,-55.28059 40,-123.57227 40,-123.57227 l -6.29687,-210.32422 c 0,0 0.97746,-132.39651 -42.27539,-176.81836 0,0 -58.29594,-93.877017 -194.63672,-93.998046 l 0,-0.002 c -0.044,0 -0.0869,0.0019 -0.13086,0.002 -0.044,-2e-5 -0.0869,-0.002 -0.13086,-0.002 z"
         style="fill:#eb4537;fill-opacity:1;fill-rule:evenodd;stroke:none;stroke-width:1px;stroke-linecap:butt;stroke-linejoin:miter;stroke-opacity:1"
         inkscape:connector-curvature="0" />
      <path
         id="path4211"
         d="m -494.05078,105.01562 c 0,0 -45.0346,86.01033 50.52344,123.32227 -17.53911,-4.26362 -79.7491,-25.55405 -67.97657,-111.50586 0,0 -51.85752,101.11883 60.50977,134.3457 -14.92865,-1.36188 -40.15158,-9.43721 -70.04297,-42.41015 0,0 18.89501,68.00626 98.53125,74.09765 l 0,0.0234 c 0.0442,-0.003 0.0867,-0.008 0.13086,-0.0117 0.0441,0.003 0.0867,0.008 0.13086,0.0117 l 0,-0.0234 c 79.63624,-6.09139 98.53125,-74.09765 98.53125,-74.09765 -29.89139,32.97294 -55.11432,41.04827 -70.04297,42.41015 112.36729,-33.22687 60.50977,-134.3457 60.50977,-134.3457 11.77272,85.95315 -50.43858,107.24271 -67.97657,111.50586 95.55804,-37.31194 50.52344,-123.32227 50.52344,-123.32227 -2.08337,79.6891 -51.4822,97.65466 -52.35742,97.9668 -0.0392,-1.14113 -0.0801,-2.29641 -0.0801,-3.12304 0,-8.58216 -17.70177,-16.59737 -19.10742,-17.22071 l 0,-0.11914 c 0,0 -0.1161,0.0541 -0.13086,0.0606 -0.0148,-0.006 -0.13086,-0.0606 -0.13086,-0.0606 l 0,0.11914 c -1.40565,0.62334 -19.10742,8.63855 -19.10742,17.22071 0,0.82665 -0.0409,1.9819 -0.0801,3.12304 -0.87781,-0.31308 -50.27411,-18.27986 -52.35742,-97.9668 z"
         style="fill:#dd7d7e;fill-opacity:1;fill-rule:evenodd;stroke:none;stroke-width:1px;stroke-linecap:butt;stroke-linejoin:miter;stroke-opacity:1"
         inkscape:connector-curvature="0" />
      <path
         id="path4203-6"
         d="m -541.90039,277.4668 c -5.74722,-0.0703 -9.01758,0.54297 -9.01758,0.54297 l 30,28.57226 c -41.4285,-32.85714 -112.85742,-1.42773 -112.85742,-1.42773 l 30,8.57031 c -94.2857,92.85714 32.85742,261.42969 32.85742,261.42969 l 0,-22.85742 c 20,-35.7143 32.85742,4.28515 32.85742,4.28515 l 2.85743,44.28516 24.28515,-34.28516 4.28516,188.57227 -22.85547,-61.42969 -2.85742,52.85742 C -597.8585,689.11464 -648.04871,571.22341 -665.19141,527.27734 l -0.0137,2.16211 c 0,0 18.0731,68.28973 40,123.57032 50.7143,127.85715 158.57031,196.42968 158.57031,196.42968 l -10,-338.57226 c 0,0 -19.99869,14.28683 -65.71289,-8.57031 -45.7143,-22.85715 -102.14398,-106.42912 -36.42968,-155.71485 61.27961,-45.9597 144.76368,59.86363 155.76172,74.36719 l 0,1.70508 c 0,0 0.37736,-0.504 0.64062,-0.85742 0.26326,0.35342 0.64062,0.85742 0.64062,0.85742 l 0,-1.70508 c 10.99804,-14.50356 94.48211,-120.32689 155.76172,-74.36719 65.7143,49.28573 9.28462,132.8577 -36.42968,155.71485 -45.7142,22.85714 -65.71289,8.57031 -65.71289,8.57031 l -10,338.57226 c 0,0 107.85601,-68.57253 158.57031,-196.42968 21.9269,-55.28059 40,-123.57032 40,-123.57032 l -0.0117,-2.16211 c -17.1427,43.94607 -67.3329,161.8373 -132.8457,219.30469 l -2.85743,-52.85742 -22.85546,61.42969 4.28515,-188.57227 24.28516,34.28516 2.85742,-44.28516 c 0,0 12.85742,-39.99945 32.85742,-4.28515 l 0,22.85742 c 0,0 127.14312,-168.57255 32.85742,-261.42969 l 30,-8.57031 c 0,0 -71.42892,-31.42941 -112.85742,1.42773 l 30,-28.57226 c 0,0 -3.27103,-0.61347 -9.01953,-0.54297 -20.4381,0.25064 -72.18615,9.1791 -119.52539,85.23632 -47.3378,-76.05491 -99.08405,-84.98516 -119.52344,-85.23632 l -0.002,0 z"
         style="fill:#7d588b;fill-opacity:1;fill-rule:evenodd;stroke:none;stroke-width:1px;stroke-linecap:butt;stroke-linejoin:miter;stroke-opacity:1"
         inkscape:connector-curvature="0" />
    </g>
  </g>
</svg>
